<svg id="Layer_1" xmlns="http://www.w3.org/2000/svg" viewBox="0 0 362.7 301.1"><style>.st0{fill:none;} .st1{fill:#111119;} .st2{fill:none;stroke:#111119;stroke-width:0;stroke-linecap:round;stroke-linejoin:round;}</style><path class="st0" d="M146 192.8s-3.3 2.3-3.6 2.6c-.2-.3-1.8-2.6-2-2.9.4-.3 3.6-2.6 3.6-2.6l-2.1-3-10.1 7.2 2.1 3s3.3-2.3 3.6-2.6c.2.3 1.8 2.6 2 2.9-.4.3-3.6 2.6-3.6 2.6l2.1 3 10.1-7.2-2.1-3zM140.1 183.1c0-7.5-9.5-9.4-12.2-3.1-.7 1.6-.7 3.4 0 5.2 2.7 7 12.2 4.8 12.2-2.1zm-7.4-3c2-.8 3.9.8 3.9 3 0 1.1-.7 2.1-1.8 2.5-3.5 1.3-5.5-4.1-2.1-5.5zM187.1 248.3c.8 0 1.6.7 2.2 1.8.7-1.3 1.1-2.6 1.1-3.6 0-1.7-1.3-4-4-4-4.6 0-3.5 6.4-5.7 6.4-1 0-1.7-.6-1.7-1.6 0-3.2 8.2-4.8-1.7-13-2.6 2.1-4.9 4.3-4.9 6.9 0 2.6 3.2 4.3 3.2 6.1 0 1-.7 1.6-1.7 1.6-2.2 0-1.1-6.4-5.7-6.4-2.7 0-4 2.3-4 4 0 1 .4 2.3 1.1 3.6.6-1.2 1.5-1.8 2.3-1.8 3.4 0 2.1 9.2 6.2 9.2 1.8 0 2.8-1.2 2.8-2.5s-.9-1.7-.9-2.7c0-1.9 3.4-1.9 3.4 0 0 1-.9 1.4-.9 2.7 0 1.3 1 2.5 2.7 2.5 4 0 2.7-9.2 6.2-9.2zM156.6 198.3c-3 0-6.1 2.9-8.2 5.1-.9-.2-1.7-.4-3-.6.3.9.8 1.8 1.4 2.8-1.4 2.2-2.8 5.1-2.8 7.6 0 1.3 1.5 4 3.8 5.2 1.5.7 3.1.7 4.6-.2-.8-.5-1.9-1.1-2.7-1.6l-.4-.2c-3.2-1.8-1.6-4.1.5-7.4 5.1 3.1 7-.4 2.7-3.8 3.7-4.4 4.5-5.4 8.2-2.5.5.4 1 .8 1.5 1.1-.2-1.1-.7-2.3-1.5-3.3-1.1-1.4-2.6-2.2-4.1-2.2zM166.2 211.5c-4.7 0-4.7 7.3 0 7.3 4.8 0 4.8-7.3 0-7.3zM182 217.1c-1.8 0-3.3 1.5-3.3 3.3s1.5 3.3 3.3 3.3c1.8 0 3.3-1.5 3.3-3.3s-1.4-3.3-3.3-3.3zM186.4 99.9l-2.4 12.6 3.5.7 2.5-12.6zM168.6 171.4h-.4c-.8 0-1.4-.5-1.3-1.4.1-.9.9-1.2 1.5-1.1h.5c.2-2 0-2.5-1-2.5-1.2 0-3.5 1.2-6.4 2.4l6.1 8.8 1-6.2zM205.4 123.8l2.1-.7 2.4 3.1-1.2 2.3 2.4 3.3 6.5-12.8-1.5-1.9-13.6 4 2.9 2.7zm6.7-2l-.7 1.3-.7-.9 1.4-.4zM201.8 104.9l-2.4-1.3-7.2 10.5 3.2 1.7 3.5-5.1.6 4 3.6-1-3.7 5 2.9 2.1 7.5-10.2-2.2-1.7-5 1.2z"/><path class="st0" d="M151 103.3c14-9.5 38.3-9.6 52.5 0 2.9-1.8 4.2-3.5 4.2-5.5 0-7.3-20.2-7.9-30.4-7.9-10.3 0-30.4.6-30.4 7.9-.1 2 1.2 3.7 4.1 5.5zM177.3 258.5c-3 0-3 4.6 0 4.6 2.9-.1 3-4.6 0-4.6zM188.9 176.6c-.1 0-.6-.3-.9-.5.3.4 0 .5.2.7.3.2.6 0 .7-.2zM188.1 179.5c.3.1.5-.1.6-.3.1-.2.1-.4.1-.4-.1-.1-.2-.3-.1-.4.1-.2.3-.1.5 0-.1-.2-.1-.3.1-.3s.1.3.2.3 0-.2 0-.3c0-.1 0-.2-.2-.2l-.9-.4c-.1-.1-.2-.1-.3 0-.1.1-.2.1-.2.2s.2-.1.3 0c.1.1 0 .2-.2.2.2.1.4.2.3.4-.1.2-.2.2-.3.2-.1 0-.2.2-.3.3.1.2.1.5.4.7zM188.3 168.2c.3.2.6-.1.6-.3.1-.2.1-.4.1-.4-.1-.2-.2-.3-.1-.5s.3-.1.5 0c-.1-.2-.1-.3 0-.3.2.1.1.4.2.3.1 0 .1-.2.1-.3 0-.1-.1-.2-.2-.2l-.9-.4c-.1 0-.2-.1-.3 0-.1.1-.2.1-.2.2.1.1.2-.1.4 0 .1.1 0 .2-.2.2.2.1.4.2.3.4-.1.2-.2.2-.4.2-.1 0-.2.2-.3.3.1.2.1.6.4.8zM189.1 165.2c-.2 0-.7-.3-1-.5.3.5 0 .5.3.8.3.1.6-.1.7-.3zM178.8 114.8v44.8h36.9c-.1-5.9-1.1-11.5-3-16.9-2-5.5-4.7-10.4-8.3-14.6-6.5-7.8-15.5-12.8-25.6-13.3zm26.4 16.9c-.2.9-.6 1.4-1.1 1.8 3.9 5.7 6.4 12.5 7.4 19.4 1 .1 1.5 1.1 1.2 1.7-.2.3-.5.6-1 .6v.4c.2.4.4.8.4 1.4-.6 0-1.1-.2-1.5-.4h-.2c0 .6-.2.9-.6 1.1-.5.3-1.5-.1-1.7-1.1h-11.5c0 .6-.2 1.2-.8 1.8-.5-.6-.8-1.2-.8-1.8h-10c-.4 1.4-2.2 1.4-2.2 0h-.4c-.4.2-.8.4-1.4.4 0-.6.2-1 .4-1.4v-.3c-.6 0-.8-.3-1-.6-.2-.5.1-1.4 1-1.7v-15.4c-.6 0-1.2-.3-1.7-.8.5-.5 1.1-.7 1.7-.8v-14.2c-1.4-.4-1.4-2.3 0-2.3v-.1c-.3-.4-.5-1-.5-1.8.7.1 1.2.3 1.5.7.1 0 .2 0 .3.1.3-1.3 2.1-1 2.3.5 6.5 1.9 12.6 6.3 17.5 12.4.3.3.5.7.8 1.1.4-.5 1.1-.8 1.9-.7zM190 177.6c.3 0 .2-.2.7-.3-.3-.1-.9-.3-1-.4-.2.3-.1.7.3.7zM187.8 190.1c-.1-.1-.2-.2-.1-.4s.3-.1.5 0c-.1-.2-.1-.3 0-.3.2 0 .1.3.2.3s0-.2 0-.3c0-.1-.1-.2-.2-.2l-.8-.4c-.1-.1-.2-.1-.3 0-.1 0-.2.1-.2.2s.2-.1.3 0c.1.1 0 .2-.2.2.2.1.3.2.3.4-.1.2-.2.2-.3.2-.1 0-.2.1-.3.3-.1.2-.1.5.2.7.7.2 1-.5.9-.7zM165.1 192.6l-14.9-21.8c-1 11.4 7 18.9 14.9 21.8zM166.2 186.5l-10.9-15.9c-.7.1-1.4.2-2.1.2H152l13.6 19.8c.2-1.2.4-2.6.6-4.1zM187.9 188.1c-.1 0-.6-.3-.9-.5.2.4 0 .5.2.7.3.2.6 0 .7-.2zM167.3 179.8l-7.2-10.5c-1 .4-2 .7-3.1.9l9.6 14c.2-1.4.4-2.9.7-4.4zM188.9 189.1c.3 0 .2-.2.6-.3-.3-.1-.9-.3-1-.4-.1.3.1.7.4.7zM190.2 166.2c.3 0 .2-.2.7-.3-.3-.1-1-.3-1.1-.4 0 .3.1.7.4.7zM153.5 148.3c-.1.3.1.7.4.7.3 0 .2-.2.7-.3-.4 0-1-.3-1.1-.4zM156.2 136c-.2 0-.7-.3-1-.5.3.5 0 .5.3.8.3.2.6 0 .7-.3zM156.9 136.4c-.1.3.1.7.4.7.3 0 .2-.2.7-.3-.3 0-1-.3-1.1-.4zM156.7 137.2l-.9-.4c-.1-.1-.2-.1-.3 0-.1.1-.2.1-.2.2s.2-.1.4 0c.1.1 0 .2-.2.2.2.2.4.2.3.5-.1.2-.2.2-.4.2-.1 0-.2.2-.3.3-.4.6.6 1.1.8.4.1-.2.1-.4.1-.5-.1-.2-.2-.3-.1-.5s.3-.1.5 0c-.1-.2-.1-.3 0-.3.2 0 .2.3.2.3.1 0 0-.2.1-.3.2.1.1 0 0-.1zM153.2 149.2l-.9-.4c-.1-.1-.2-.1-.3 0-.1.1-.2.1-.2.2.1.1.3-.1.4 0 .1.1 0 .2-.2.3.2.1.4.2.3.5-.1.2-.2.2-.4.2-.1 0-.2.2-.3.3-.3.6.5 1.2.8.4.1-.2.1-.4.1-.4-.1-.2-.2-.3-.1-.5s.3-.1.5 0c-.1-.2-.1-.4 0-.3.2 0 .2.3.2.3.1 0 .1-.2.1-.3.2-.2.2-.3 0-.3z"/><path class="st0" d="M182.3 119.2v36.5h28.5c-.7-8.6-3.9-17-9.2-23.8-5.2-6.8-12-11.3-19.3-12.7zm27.9 35.9h-27.4v-35.2c7 1.9 13 5.3 18.4 12.3 4.9 6.3 8.1 14.2 8.9 22.3l.1.6zM152.8 148c-.2 0-.7-.4-1-.6.3.5 0 .5.3.8.2.2.5 0 .7-.2zM145.2 115.8l5.7 6.3 2.6-2.4s-5.4-5.9-5.7-6.3l2.5-2.3-2.3-2.5-7.5 7 2.3 2.5 2.4-2.3zM143 128.9c-1.4-4.7-8.3-6.3-11.2-.8-2.7 5.1 1.9 10.5 7 8.9 3.3-1 5.2-5 4.2-8.1zm-5.1 4.7c-1.9.6-4.4-1.5-3.1-3.9.7-1.4 2.2-1.9 3.6-1.2 2.1 1.1 1.7 4.4-.5 5.1zM148.2 124.8l-9.2-7.4-2.2 2.8 9.3 7.4zM164 125.5c.3 0 .2-.2.7-.3-.3-.1-.9-.3-1-.4-.2.3 0 .7.3.7zM162.3 125.2c0 .1-.2.1-.1.2 0 .1.2-.1.3 0 .1.1 0 .2-.2.2.2.1.3.2.3.4-.1.2-.2.2-.3.2-.1 0-.2.1-.2.3-.3.6.5 1 .7.3.1-.2.1-.3.1-.4-.1-.1-.2-.2-.1-.4s.3-.1.5 0c-.1-.2-.1-.3.1-.3.1 0 .1.3.2.3.1-.1 0-.2.1-.3 0-.1-.1-.2-.2-.2l-.8-.4c-.2.1-.3 0-.4.1zM221.1 171.7l1 .2-.7 4.2 3.4.6.7-4.2.9.2-.7 4.3 3.4.6 1.4-7.9-12.1-2.2-1.5 8 3.4.6z"/><path class="st0" d="M200.2 135.7c.1-.8.5-1.3.9-1.7-.7 0-1-.4-1.2-.8-.1-.3 0-.6.2-.9-4.2-5.3-9.6-9.1-15.3-10.9.2.4.3.9.3 1.5-.5-.1-.9-.2-1.2-.5v11.5c1.2 0 1.7 1.1.7 2.1.6 0 1.2.2 1.7.8-.6.5-1.2.8-1.7.8 1 .9.5 2-.7 2v13.6c.4-.3.9-.5 1.5-.5 0 .6-.2 1.1-.4 1.5h8.2c0-.5.3-.9.7-1 .4-.2.9-.1 1.3.5 0-.6.2-1.2.8-1.7.5.6.7 1.2.8 1.7.9-1 1.9-.5 2 .6h9.6c-.3-.4-.5-.9-.5-1.5.5 0 .9.1 1.3.3-.8-5.7-2.8-11.3-5.8-16.2-.3.1-.6 0-.8-.1-.4-.2-.6-.7-.4-1.4-.6.2-1.3.4-2 .3zm4.2 8.4c-.2 2.2-3.4 1.6-4.3 0 0 2.5 3.3 3.2 3.8 2.6.5-.5.8-.5 1.3.3s0 .5-.4.7c.1.1.6.4 1.2.2-.2.4-.6.8-1.1 1.1.1.1.6.2 1 .2 0 .3-.4.5-.7.7v.1c0 .8-.8.5-.8.9 0 .3.7.4.4 1.1 0 0-.2.2-.2.3.1.2.3.2.4.3-.4.2-.8 0-.9-.3h-.3c-.3-.1-.3-.6-.2-.9 0 0 0-.1-.1 0-.4.2-.2.8-.5.8h-.2c-.2.4-.1.4 0 .6-.3 0-.5-.4-.5-.7-.5-.2-.7-.4.1-1 .1-.1-.1-.1-.1-.1-.3.3-.9.2-1-.3 0 0 .2-.4-.7.2 0-.4.4-.7.8-.8 0 0 .2-.2.5-.2.4 0 1.1.3 1.2 0 .2-.3 0-.8.1-1.5-.2-1.1-.9.9-2.2.4-1.9-.6-3.1-2.8-3.3-3.7-1-.2-2.8.5-2.6 1.8.2 1.1 1.3 1.6.5 2.3-.3.4-1.1 0-1.1 0l-.6.5c-.8-.5-1.1-.2-1 .1-.1-.1-.3-.2-.4-.3-.3.5-.8.4-1.1 0 0-.1-.3-.1-.4-.1-.1 0 0 .3-.2.4 0 0-.1.1-.2.1 0 .2.3.2.5.3-.5.4-1 0-1-.4l-.1-.3c0-.2.2-.3 0-.3-.1 0 0 .2-.2.2h-.2c-.1.2.2.3.2.4-.5.2-.8-.1-.7-.4-.1-.1-.2-.3-.2-.3-.2-1 1-.4 1-.8 0-.2-.3 0-.5 0-.4 0-.3-.2-.3-.5-.3 0-.5.2-.6.3-.1-.4.4-.8.8-.8 1-1 1.2.9 2.1.8h.1c.9-.3 1.3.1 2.3-.1-.8-.6-1.7-2-1.5-2.8.2-.9 1.9-2.9 5.4-1.4-.8-1.6-4.3-1.5-4.2-4.1-.3.4-.6.9-.7 1.2-.2-.2-.5-.4-1.2-.2-.6.2-1 .7-.9 1-.4-.2-1 0-1.6.3 0 .2-.1.5-.4.6-.5.3-.7-.1-.9-.3 0-.1-.1-.1-.1 0-.1.2.2.7-.1 1 0 0-.1.1-.3.1.1.4.4.5.6.6-.4.2-1-.1-1-.6-.1 0-.2-.1-.3-.1-.5-.1-.1-.7-.1-1.1 0 0 0-.1-.1 0-.6.9-.9.8-1.3.1-.2.2-.3.4-.3.6-.4-.3 0-1.1.4-1.1.6-.7.4-.4 1.1-.2.2.1.4-.1.5-.2.1-.1 0-.1-.1-.1-1.1.1-1.1-.2-1-.7-.3-.2-.5-.1-.6-.1.1-.2.6-.4.9-.3.3-.2.6-.2.8 0 .3.2.3.4.5.5 1 .6 2.2-1.8 3.7-2.7-1.9-.8-2.5-2.6-3.3-3.9-.1 0-.1.2-.1.3-.3 0-.4-.3-.4-.5s-.3-.1-.2.1c-.1 0-.1-.6-.1-1-.8.4-1.7-.4-1.2-1.3 0 .7.8.9 1 .5-.6-.1-.6-.6-.2-1 .1-.1-.1-.1-.2-.3-.2-.1-.4.2-.6.1l-.2-.2h-.1c-.2.1-.1.3-.1.4-.4-.3-.4-.6-.1-.8v-.3c0-.3.3-.6 1-.3.1.1.1-.1 0-.2 0-.1 0-.1-.1-.1-.4 0-.7-.1-.7-.6s.3-.3-.3-.6c.4-.3.8-.3.8.3.5-.1.7.4.9.9 0 .2.1-.1.1-.2l-.1-.1c-.3-.3 0-.6.2-.8 0-.3-.2-.4-.3-.5.3-.1.9.4.9 1 .1.9-.7 2.1.4 2.7.7.4 2 1.6 2.5 2.6.2.4.6.7 1 .9.3-1.8 2.1-1.7 2.1-3.2 0-.6-1.2-.4-1.8-.3-.7.2-1 0-1-.3 0-.9.1-.6 1.5-.8.5-.1.4-.2.3-.5-.1-.5-.9-.5-1.1-.2l-.3.6-.4-.5c-.5-.2-.5-.4-.6-.9-.1-1.2.6-.3 1.5-1.1.2-.2.4-.1.9-.2.3 0 .5-.3.8-.6.1.2 0 .6.6.7.3.1.4.2.7.7.2 0 .6.1.8-.1.3.8.1 1.4.1 1.4.9.7 2.5 3.4 1.5 4.8-.2 1.5-.8 3.2.5 4.9.7.9 1.8 2.6 3.1 3.8l.3.3c1.8 1.5 2.7 1 2.8.3.1-1.3-2.8-2.8-4.2-4.3-1.7-1.9-1.4-4.1-.8-5.3.2.6.3 1.1.4 1.6 1.3 1.8.8 2.6 1.3 3.6.4.4.8.8 1.4 1.3 1.4 1.2 2.7 1.9 2.5 3.3zm-13-14.2zM221 182l-7.6 2.6-1 2.7 11.4 4.7 1.3-3.3-5.6-2.4 7.6-2.7 1-2.5-11.4-4.7-1.3 3.3zM219 193c-1.7-1.2-3.4-.4-4.8.3-.7.3-1.6.8-1.9.5-.2-.1 0-.4.1-.6.5-.6 1.9-1.5 3.9-1.9l-3.4-2.4c-4.6 1.6-5.3 5.9-2.5 7.9 2 1.4 4 .4 5.3-.3.7-.3 1.3-.7 1.4-.5.2.2 0 1.2-3.6 2.4l3.4 2.4c1-.4 2.3-1.3 2.9-2.1.6-.8.8-1.7.8-2.6 0-.2 0-.5-.1-.7-.1-1-.6-1.8-1.5-2.4zM223.1 162.5c0 4.9 4.7 5.3 6.7 3.4 1.5-1.4 1.2-3.1 1.3-7.6l-12.3-.2-.1 3.7s4 .1 4.4.1v.6zm3.4-.6h1v.7c0 .6-.2.6-.5.6-.6 0-.5-.6-.5-1.3zM162.4 124.7c.2.2.5 0 .6-.2-.1 0-.6-.3-.8-.5.2.5 0 .5.2.7z"/><path class="st0" d="M138.9 159.6h37.8v-44.8c-4.9.1-9.7 1.3-14.2 3.6-14.5 7.2-23.3 23.7-23.6 41.2zm35.2-8.9c0 1.1-2.9 1.4-4.6 1.5 1.6.1 2.2.3 3.1.2.5-.1.5.2.6.3.1.5.6.2.8 0 .1.4-.1.6-.2.7-.1 0 0 .1 0 .1.1.3-.1.7.4.7-.1.3-.3.2-.5.2 0 0 .3.1.3.5 0 .7-.7.5-.7.8 0 .3.6.3.4 1 0 0-.1.2-.2.3 0 .1.2.2.3.3-.4.2-.7 0-.8-.2-.1 0-.2-.1-.2-.1-.3-.1-.2-.5-.1-.8h-.1c-.3.2-.2.8-.5.8h-.2c-.1.3-.1.4 0 .6-.2 0-.4-.3-.4-.6-.1 0-.2-.1-.2-.1-.4-.2.1-.6.3-.8.1-.1 0-.1-.1-.1-.3.3-.9.2-.9-.4-.2 0-.5.2-.6.3 0-.4.4-.7.7-.7 0 0 .2-.2.4-.2.4 0 .9.2 1.1 0 .1-.3-.1-.4.1-1.1.1-.2-.1-.3-.2-.3-2.2-.2-1.1.7-3.7.7-.7 0-1.2-.2-1.8-.5.3.5 0 .8.3 1 .5.3.6 1.2.5 1.4-.1.2-.8.2-1.3.1h-.4c-.5.1 0 .7-.6.8-.3.1-.6-.1-.7-.3 0-.1-.5-.1-.5 0 0 .2 0 .3-.1.4 0 0-.1 0-.2.1 0 .2.4.3.5.3-.5.3-1 0-1-.4 0-.1-.1-.3-.1-.3 0-.1.1-.2.1-.2s0-.1-.1-.1 0 .2-.2.2h-.2c0 .2.1.3.2.3-.5.2-.7-.1-.7-.4-.1-.1-.2-.2-.2-.3-.2-1 .9-.4.9-.8 0-.1-.1-.1-.1-.1-.1 0-.2.1-.3.1-.3 0-.4-.2-.3-.5-.3 0-.5.2-.6.3-.1-.4.4-.8.7-.8.1 0 .2-.1.2-.2.9-.4.9 1.5 1.7.9.1-.1.5-.1.8-.2 0 0 .1 0 0-.1-.2-.2-.7-.4-.9-.4-.6-.1-.5-1-.3-1.5-.2.2-.3.3-.6.3-5.4-.5-2.8 2.1-7.4 1.5-.3-.1-.2.7-1 .7 0 0 0-.2.1-.2-.1 0-.3.1-.4.1.1.4-1.9 1.3-2.3 1.3.2-.1.5-.6.3-.5-.8.5-2.2-.1-2.4 1.1-.3-.3-.1-.8-.3-.8-.1 0-.2.2-.2.2-.1-.1-.1-.3-.1-.5 0 0 0-.1-.1 0-.5.1-.8.1-1 0 0-.1-.1-.2-.2-.3-.1.6-.6.8-.8.8.3-.3.3-.6.2-.9-.1.2-.3.3-.4.4 0-.2-.1-.4-.2-.5 0 0-.1 0 0 0 .1.7-1.2 1.1-1.3.1 0-.1 0-.1-.1-.1-.2.2 0 .7-.5.8 0 0-.2 0-.2-.1-.1.4.1.6.3.8-.4 0-.9-.6-.7-.9-.1-.1-.2-.1-.2-.1-.4-.3.1-.7.3-1 0 0 0-.1-.1-.1-.7.5-1.1.5-1.2-.4-.3.1-.4.3-.5.4-.3-.5.5-1 .8-.8.1 0 .2-.1.2-.1.5-.3.6.7 1.2.4.1 0 0-.1 0-.1-1-.4-.9-.6-.6-1-.2-.2-.3-.3-.5-.3.2-.2.7-.1.9.1.4 0 .5 0 .7.4.2.3.1.4.3.7.4.6 1.7.1 2.2-.2.4-.2 2.2-.1 2.3-.1.1 0-.2-.7-.3-1.2-.1-.1-.2-.2-.2-.3-.1.3-.4.3-.6.3-1.1-.6-1.7-1.8-1.9-1.8-.1 0-.1.2-.1.3-.3 0-.4-.3-.4-.5-.1-.2-.2 0-.2.1-.1 0-.2-.1-.3-.3 0 0 0-.1-.1 0-.8.5-1.8-.2-1.2-1.2-.1.8 1 1 1 .2 0-.1 0-.1-.1-.1-.6-.1-.7-.5-.2-.9v-.1c-.1 0-.1-.1-.2-.1-.2-.1-.4.2-.5.1l-.2-.2c-.2.1-.2 0-.2.4-.4-.2-.4-.6-.1-.8-.2-.5.2-.9.9-.6h.1c0-.2-.1-.2-.2-.2-.6 0-.7-.3-.6-.9-.1-.1-.2-.1-.3-.2.4-.4.8-.2.8.3.5-.1.7.4.8.9 0 .2.2-.2.1-.3-.2-.2 0-.5.2-.8 0-.3-.2-.4-.3-.5.3 0 .7.2.8.5.5 1.1-.7 2.3.5 3 1.3.8.4 1.1 2.4 1.3l.3.1c0-.3 0-.6.1-.9l-.3-.3c.3 0 .4-.6.7-1.1-.1 0-.2-.1-.3-.4.3.1.7-.8 1-.8-.1-.4-.1-.7.1-1 .2 0 .5.1.7.3 0-.2.3-.2.5-.2 0 0 .4-.1.5-.1.7.1.8.1 1.7.8.1.1.2.5.2.5.1.2.3.3.2.5.2 0 .5.1.7.3 0 .3-.3.6-.6.7.4.5-.5 1.4-.7 2.1 5-1.5 18.8 1.3 18.8-.7 0-2.2-15.1 1.8-15.1-1.9 0-1.6 3.3-1.3 5.9-1.3 1.1-1.3 5.2.3 6.5-.6-.1.5-1.8.8-3.4.8 2.7.6 5.4-1.5 7.5.4-2.6-.9-6.4 1.6-10 .5-.3-.1-.5-.2-.6-.4-2.1-.1-5.1-.5-5.1.6-.1 2.7 15.2-1.2 15.2 2.2zm-9.3-14.1c-.3-.1-.5-.2-.6-.4-1.5-.1-2.7-.2-2.7.7 0 1.6 6.3.5 9.2.5 2.8 0 3.8.5 3.8 1.4 0 1.1-2.7 1.5-4.6 1.5 1.6.2 2.2.3 3.1.2.5-.1.6.3.6.3.1.5.6.2.8 0 .1.4-.1.6-.2.7v.1c.1.3-.1.7.4.7-.1.3-.3.2-.5.2.2.1.3.3.3.4 0 .7-.7.5-.7.8 0 .3.6.3.4 1 0 0-.1.2-.2.3 0 .1.3.2.3.3-.4.2-.7 0-.8-.2-.3-.1-.6-.1-.4-.9 0 0 0-.1 0 0-.3.2-.2.8-.5.7h-.2c-.1.3-.1.4 0 .6-.2 0-.4-.3-.4-.6-.1 0-.2-.1-.2-.1-.4-.2.1-.6.3-.8.1-.1-.1-.1-.1-.1-.3.3-.8.2-.8-.5-.3 0-.5.2-.6.3 0-.4.4-.7.7-.7 0 0 .2-.2.4-.2.4 0 .9.2 1.1 0 .2-.3-.1-.4.1-1.1.1-.2-.1-.3-.2-.3-1.9-.4-1.1.7-3.7.7-.7 0-1.2-.2-1.8-.4.3.4 0 .8.3 1 .5.3.6 1.2.4 1.4-.2.4-1.2.1-1.6.1-.5.1 0 .6-.6.8-.3.1-.6-.1-.7-.3 0-.1-.3-.1-.4-.1 0 0-.1 0-.1.1 0 .2 0 .3-.1.3 0 0-.1.1-.2.1.1.2.4.2.5.3-.5.3-1 0-.9-.4l-.1-.3c0-.1.2-.2 0-.3-.1 0 0 .2-.2.2h-.2c0 .2.1.3.2.3-.5.2-.7-.1-.7-.4-.1-.1-.2-.3-.2-.3-.2-.9.9-.4.9-.7 0-.1-.1-.1-.1-.1-.1 0-.2.1-.3.1-.4 0-.4-.2-.3-.5-.3.1-.5.2-.6.3-.1-.4.4-.8.8-.8 1-1 1.1 1.4 2 .7.1-.1.5-.2.8-.2 0 0 .1 0 0-.1-.2-.2-.7-.3-.9-.4-.5-.1-.5-1.2-.2-1.7-.2.2-.7.5-1 .4-4-.7-2.2 1.8-4.7 1.6-.2 0-.5 0-.8.1-.2.6-1.5 1.9-2.4 1.7.3-.1.5-.5.3-.5-.8.5-1.5 0-1.6 1.3-.3-.3-.2-.8-.3-.8-.1 0-.2.2-.2.3-.1-.1-.1-.3-.1-.5 0 0 0-.1 0 0-.5.1-.8.1-1 0v.1c0-.1-.1-.2-.2-.3-.1.5-.6.8-.8.8.3-.3.3-.6.2-.9-.1.2-.3.3-.4.4.1-.2-.1-.4-.2-.5 0 0-.1 0 0 0 .1.7-1.1 1.1-1.3.1 0-.1 0-.1-.1-.1-.2.2-.1.7-.5.8 0 0-.1 0-.2-.1-.1.4.1.6.3.7-.5 0-.9-.7-.7-.9-.7-.5-.2-.5.1-1.2 0-.1 0-.1-.1-.1-.9.6-1 .3-1.2-.4-.3 0-.4.3-.4.4-.3-.5.5-1 .7-.8.9-.6.9.6 1.5.3.1 0 0-.1 0-.1-.6-.2-1.1-.5-.6-1-.2-.3-.3-.3-.5-.3.2-.2.7-.1.9.1.4 0 .5 0 .7.4.2.3.1.5.3.7.4.6 1.7.1 2.2-.2.4-.2 1.8-.1 2-.1.1 0-.4-.6-.3-1.2-.3.4-.7-.2-1.2-.4-.6-.4-1-1-1.1-1-.1 0-.2.2-.1.3-.3 0-.4-.3-.4-.5s-.3 0-.2.1c-.2 0-.2-.2-.2-.3 0-.1 0-.1-.1 0-.8.4-1.8-.2-1.2-1.2-.1.8.9.9 1 .2 0-.1 0-.1-.1-.1-.6-.1-.6-.5-.2-.9.1-.1-.1-.1-.2-.2-.1 0-.4.2-.5.1 0 0-.1-.1-.2-.1-.2 0-.2.2-.2.4-.4-.3-.3-.6-.1-.8-.1-.5.3-.9 1-.6 0 0 .1 0 .1-.1-.1-.1 0-.2-.2-.2-.6 0-.7-.3-.5-.9-.1-.1-.2-.1-.3-.2.5-.5 1-.1.8.3.5-.1.7.4.8.9.1.2.1-.3.1-.3-.3-.3 0-.5.2-.8 0-.3-.2-.4-.3-.5.2-.1.7.2.7.5.3 1-.1.9-.2 1.8 0 .6 0 .9.5 1.2.5.3.9.8 1.2 1.1.6.2.3.1 1.1.4 0-.3 0-.7.1-1.1-.1 0-.3-.2-.5-.4.3 0 .4-.6.7-1.1-.1 0-.2-.1-.3-.4.3.1.7-.8 1-.8-.1-.4-.1-.7.1-1 .2 0 .5.1.7.3 0-.2.3-.2.5-.2 0 0 .4-.1.5-.1.8.3.8.1 1.7.8.1.1.2.5.2.5.1.2.3.3.2.5.2 0 .5.1.7.3 0 .3-.2.6-.6.7.4.4-.3 1.2-.6 1.9 3.7-.8 9.9.3 12 .3 1.3 0 3.7-.2 3.7-.8 0-.5-.5-.7-2.9-.7s-9.9 1.7-9.9-1.2c0-1.4 1.6-1.4 3.6-1.3.9-1.3 4 .1 5.3-.7-.1.4-.6.9-2.2.9 2.7.6 4.9-1.5 7.5.5-3-.4-7.3 1.5-10.9.5zm-2.1-13.4c.4-.2 1.2-.1 2 .7.1.1.1.4.2.5.1.1.2.3.2.5.2 0 .4.1.6.3 0 .3-.2.5-.5.7.4.5-.7 1.5-.7 2.1 3.2-.8 4.5.4 6.2.4 2.3 0 3.8-.6 3.8-1.4 0-2.3-8.4-.1-8.4-3.3 0-.5.3-.9.9-1.2-.3-1.2 2.7-1.9 3.4-2.8.1.4-.2 1.4-1.1 1.8 1.5-.1 2-3 5.7-2.5-3 .6-3.2 3.6-7.3 3.9-.4.3-.6.6-.6.9 0 2.1 8.3 0 8.3 3.4 0 1-1.5 2-4.5 1.9-.2 0-.1.1 0 .1 1.5.1 1.8.5 2.6.5.5-.1.5.2.5.2.1.4.6.2.7 0 .1.4-.1.6-.2.7-.1 0 0 .1 0 .1.1.2-.1.7.4.6-.1.2-.2.2-.4.2.2.1.3.3.3.4 0 .6-.6.4-.6.7 0 .3.5.3.3.9 0 0-.1.2-.2.3 0 .1.2.2.3.3-.3.2-.6 0-.7-.2-.1 0-.2 0-.2-.1-.3-.1-.2-.4-.1-.7-.3.2-.2.7-.4.7h-.2c-.1.3-.1.4 0 .5-.2-.1-.4-.3-.4-.6-.4-.2-.6-.2.1-.8.1 0-.1-.1-.1 0-.3.3-.7.1-.8-.3 0-.3-.3 0-.5.1 0-.3.3-.6.6-.7.2-.4 1.2.1 1.3-.2.1-.3-.1-.3.1-.9 0-.2-.1-.3-.2-.3-.2 0-.8-.2-1.4.2-.5.3.6.5-.6.5-.6 0-1.1-.2-1.6-.4.3.4 0 .7.2.8.5.3.5 1.1.4 1.2-.1.2-.7.2-1.2.1h-.3c-.4.1 0 .6-.5.8-.3.1-.5-.1-.6-.3 0 0 0-.1-.2-.1h-.2c-.2 0 0 .2-.2.4 0 0-.1.1-.2.1 0 .2.3.2.4.2-.4.3-.9 0-.8-.3 0 0-.1-.2-.1-.3 0-.1.1-.1.1-.2s0-.1-.1-.1 0 .2-.2.2h-.2c0 .1.1.2.2.3-.4.1-.6-.1-.6-.4 0-.1-.1-.2-.1-.3-.2-.8.8-.3.8-.7 0-.2-.2 0-.4 0-.3 0-.3-.1-.3-.4-.3 0-.4.2-.5.3-.1-.3.3-.7.7-.7.1 0 .2-.1.2-.1.8-.3.8 1.3 1.6.8.2-.1.8-.1.7-.3-.2-.2-.6-.3-.8-.4-.5-.1-.5-1.1-.2-1.6-.2.2-.7.4-.9.3-3.2-.2-.7 1-2.3 1.3-.3.1-1.1.9-1.8.9.2-.1.1-.4 0-.5-.1.3-.5.4-.8.4-.2.1-.5.3-.5.4 0 .4-.6.7-.9.7.3-.2.4-.6.2-.4-.7.4-1.3 0-1.4 1.1-.3-.2-.1-.7-.3-.7-.1 0-.2.2-.2.2-.1-.2 0-.6-.1-.5-.4.1-.7.1-.9 0 0-.1-.1-.2-.2-.2-.1.5-.5.7-.7.8.3-.3.3-.6.2-.8-.1.2-.2.3-.3.3.1-.2-.1-.4-.2-.5 0 0-.1 0 0 0 .1.7-1.1 1-1.1.1 0-.1 0-.1-.1 0-.2.1 0 .6-.4.8 0 0-.1 0-.2-.1 0 .3.1.6.2.7-.2 0-.7-.3-.6-.8-.1-.1-.2-.1-.2-.2-.4-.2.1-.6.3-.9 0 0 0-.1-.1-.1-.9.6-.9.2-1.1-.4-.2 0-.3.2-.4.3-.2-.4.3-.9.7-.7.1-.1.2-.1.2-.1.5-.3.6.7 1.1.4.1 0 0-.1 0-.1-.7-.3-.8-.5-.7-.7l.1-.2c-.2-.2-.3-.3-.4-.3.2-.1.6-.1.8.1h.3c.1 0 .3.2.4.3.2.2.1.4.2.6.3.5 1.5.1 2-.2.3-.2 1.3-.1 1.5-.1.1 0 1.2-.3 1.9-.6-.4-.5-.7-1-.8-1-.1 0-.2.1-.1.3-.3 0-.3-.3-.3-.4 0 0 0-.1-.1-.1s-.2.1-.2.1c-.1 0-.2-.1-.2-.3 0 0 0-.1-.1 0-.8.4-1.7-.2-1-1-.2.7.8.8 1 .2 0-.1 0-.1-.1-.1-.5-.1-.6-.5-.1-.8.1-.1 0-.1-.2-.2h-.2c-.2.1-.4.2-.5 0h-.1c-.2 0-.2.2-.2.3-.4-.2-.2-.6 0-.7v-.2c.1-.2.3-.5.9-.2h.1c-.1-.1 0-.2-.1-.2-.6 0-.7-.4-.4-.8-.1-.1-.2-.1-.3-.1.5-.4.8-.1.8.2v.1c.5 0 .5.2.7.8 0 .1.1-.1.1-.2v-.1c-.2-.2-.1-.3 0-.4 0 0 .2-.1.2-.2 0-.3-.1-.3-.2-.4.3-.1.7.2.7.8 0 .4-.3.8-.4 1.2-.1 1 .3.8 1.1 1.6 0-.4.2-1.3.4-1.9-.1 0-.2-.1-.2-.3.3 0 .4-.6.6-1-.1 0-.2-.1-.3-.3.3.1.6-.7.9-.7-.1-.4-.1-.6.1-.9.2 0 .4.1.6.3-.2-.7 0-.7.2-.7zM200.8 201.2l2.5 2.5 3.2-3.1.7.7-2.9 3 2.5 2.5 2.9-3 .6.6-3 3.2 2.5 2.4 5.5-5.7-8.7-8.8zM161.5 101c-7.8 3-4.6 13.3 2.6 12.4.6.2 3.6.9 6.2.2l1.6-3.4c-1.1.3-2.2.1-2.8.1.7-1 1-2.2 1-3.5 0-4.1-4-7.5-8.6-5.8zm3.1 8.7c-3.2 1.2-4.6-2-3.7-3.8.6-1.3 2.5-2.1 3.9-1.4 2.1.9 2.4 4.2-.2 5.2zM182.8 99.5h-3.6c0 6.8.2 8.1-.3 8.6-.3.3-.9.5-1.6.6-.6 0-1.1-.1-1.4-.5-.2-.2-.3-.3-.3-1.3v-7.2l-3.6.1v7.5c.1 3.5 2.8 5.1 5.4 5 1.8-.1 3.2-.6 4.2-1.6 1.5-2 1.2-3.7 1.2-11.2zM251.4 105.5c1.6-1.3 2.3-3.4 1.3-4.6-1.6-2.2-6.4 0-6.4 3.4-.1 2.4 2.9 2.9 5.1 1.2zM272 248.1c.8.5 2.4 1.5 3.5 2.1-1.3 2.1-5.2 8.3-5.2 8.4l3.5 1.6c.6-1 3.9-6.3 5.1-8.2 1.3.7 3.1 1.5 4.1 2l1.7-3.2c-2.4-1.1-8.1-4-11-5.8l-1.7 3.1zM235.7 222.2l-5.2-1.3-4.6 13.2 4.6 1.1c3.8.9 7.7.6 9.8-4.6 1.7-4.5-1.3-7.6-4.6-8.4zm.8 7.3c-.9 2.4-2.5 2.8-4.9 2.2 0 0-.5-.1-.8-.2 3.1-7.9 1.4-5.9 3.1-5.9 2.8.7 3.3 2.1 2.6 3.9zM219.5 236.8c-5 .9-11.5 3.2-11.5 7.6 0 5.2 16.5 7.3 15 14.4 5.2-2.7 8.2-6 8.2-9.3-.1-5.4-8.5-8.5-11.7-12.7zM269.2 241.8l-7.1 11.8 3.3 2.1 7.2-11.9zM264.9 240.9c-1-3.7-5.1-6.1-8.9-5.2-5.8 1.3-7.7 9.3-1.8 12.8 6 3.5 12.3-1.8 10.7-7.6zm-8.8 4.5c-.8-.5-1.4-1.2-1.6-2-.4-1.8.8-3.6 2.5-4 1.7-.4 3.7.7 4.2 2.5.7 2.5-2.2 5.2-5.1 3.5zM210.7 273.5l-5.9-6.1-2.8.5-.9 14.7 3.9-.8s.3-6.1.4-7.6c1 1.1 5.8 6 5.8 6l2.9-1.1.8-14.1-3.9 1.1c.1-.1-.2 5.9-.3 7.4z"/><path class="st0" d="M249.8 229c-1-.6-3.5-2.1-4.6-2.7l-6.8 12 3.4 1.8s2.1-3.7 2.5-4.3c.4.3.5.9.6 2.3l.3 4c.3.2 3.5 2.3 4.2 2.7 0 0-.7-7.7-.8-8.1 3.1.2 5.9-4.7 1.2-7.7zm-2 4.5c-.6.2-.9-.2-1.8-.7.3-.4.8-1.4.8-1.4l1 .6c.9.6.6 1.3 0 1.5zM192.4 269.1c-7.3.2-9.8 8.6-5.4 12.7 3.1 2.8 8.1 2.3 10.8-.3 4.7-4.5 2-12.7-5.4-12.4zm-3.5 7.4c0-3.4 4-4.6 6.1-2.7.7.6 1 1.4 1 2.3 0 4.6-7.1 4.9-7.1.4zM143.9 276.5c0-.4-.1-1.4-.1-1.5.8.2 4.7 1.2 4.7 1.2l-.1-3.9s-4.2-1.1-4.8-1.2c-.1-1.8-1-1.2 5.1-.1l-.1-3.8c-2.4-.4-7-1.7-9.2-2.3l.7 14.1c2.2 1 5.6 2.1 8.9 2.7l-.2-3.9c-1.6-.4-3.6-.9-4.9-1.3zM103.7 241.7c-.2-.4-.5-.8-.7-1.2l4.2-2.8-1.9-3.1-4.2 2.8c-.2-.3-.5-.7-.7-1.1l4.3-2.9-1.9-3.1-7.5 5 7.1 11.6 7.7-5.1-1.9-3.1-4.5 3zM114.2 223.9c4 9.3 4.8 9.6 2.3 10.8-2.4 1.1-2.5-.3-6.2-8.8l-3.4 1.8 3.2 7.4c1.3 2.9 3.8 4.7 7.8 2.9 6.7-3 3.3-7.6.1-15.4l-3.8 1.3zM176.5 274.6c-.6-.7-3.9-4.8-3.9-4.8l-3.3-.1V284l3.9.1v-7.6c.9 1.1 3.3 4 3.3 4s2.3-2.8 3.3-4v7.6l3.9-.1v-14.3l-3.3.1c-.1 0-3.3 4.1-3.9 4.8zM149.8 271.2c1.2.2 2.8.5 4 .6v10.7l3.9.6v-10.7c1 .2 2.9.4 4 .5v-3.8c-3.8-.5-8.5-1.2-11.9-1.7v3.8zM306.3 155.1c1.3-1.2.9-3.8-.7-5.4-2.5-2.6-6.1-2-6.1.9-.1 3.7 4.7 6.6 6.8 4.5zM302 168.5c-1.5-1.1-3.8-.4-5.2 1.6-1.4 1.9-1.2 4.4.3 5.5 1.5 1.1 3.8.4 5.2-1.5 1.3-2.1 1.2-4.5-.3-5.6zM87.7 240.3l7.2 11.6 3.1-2-7.2-11.7zM293.5 124c2.5-2.8 7.6-8.3 7.6-8.4l.2-.2-3.9-3.2c.1.9.3 2-.2 4.6-1.3-1.3-1.1-2.6-1-3.5l-3.4 4.3h.5c.6 0 2.1.2 2.8.8-1.9 1.8-3.6.9-5 0-2.1-1.4-2.9-2.5-2.4-3.4.3-.5.9-.7 1.5-.6.6.1 1.3.6 1.4 1.7v.3l.3-.1c1.2-.6 1.7-1.3 1.8-1.9.1-.2.1-.5.1-.7 0-.4-.1-.8-.3-1.2-.4-.7-1.2-1.1-2-1.1 1.8-1.3 2.8-3.1 2.8-5.2 0-.5 0-1-.2-1.5l-.1-.2c-2.7.6-4.5 1.5-5.6 5-.4-1-1-1.8-2-1.9-.7 0-1.4.2-1.8.7-.4.4-.9 1.2-.8 2.5v.3l.3-.1c3.3-1.1 3.7 5.4-1.9 1.9-1.6-.9-2.1-2.1-2.1-3.2 0-.7.2-1.4.5-2 .5.6.8 1.6.8 2.8v1.2l3.7-6-.7.2c-.3.1-1.4.4-2.6.1 1.1-1.3 2.2-2 3.4-2.1l.8-.1-6.8-4c.5 1.1 1.1 2.2.3 4.8-1.1-1.1-1.2-2.2-1.4-3.1l-3.3 6.3.8-.5c1.1-.7 2.2-.9 3-.8-1 1.4-2.6 2.7-5.2 1.2-5.8-3.3 0-6.1.6-2.6l.1.3c.9-.5 1.8-1.1 2-2.2.4-1.6-.8-3.2-2.9-2.8 2-2.3 2.6-4.4 1.6-7.2l-.1-.2-.2.1c-2.6.8-4.2 2.9-4.4 5.7-.5-.8-1.2-1.2-1.9-1.2s-1.3.3-1.8.8c-.4.4-.8 1.2-.7 2.6v.3l.3-.1c1-.4 1.7-.1 2.2.4.3.3.4.7.4 1 0 .2-.1.4-.1.6-.6.9-1.9.7-4.1-.4-1.3-.7-2.6-1.5-2.6-3.4 0-.3 0-.7.1-1 .9.4 1.8 1.5 2.1 2l.3.5 2-5.1-.7.5c-.8.5-1.9.6-2.8.4 1.2-1.1 2.4-1.9 3.2-2.3l.6-.2-4.6-1.8c-.3.9-2.1 7.1-3.4 11.2l-.1.2 34.8 20.4.2-.2zM292.2 184.2c-1.5-1.1-3.9-.4-5.2 1.6-1.4 2-1.2 4.4.3 5.5 1.5 1.1 3.8.4 5.2-1.6 1.3-2 1.2-4.5-.3-5.5zM242.7 137.6c-2.7.8-2.4 4.6 1 6.2 2.1 1.1 4.5.6 5.3-1 1.3-2.8-3-6.5-6.3-5.2zM239.5 112.1c-.7.7-1.2 1.8-1.3 3-.2 1.6.8 3.8 2.5 3.9 1.4.1 2.8-1.5 2.9-3.6.1-3-2.2-5-4.1-3.3zM331.8 203.7c-3.4 0-6.2 2.8-6.2 6.3s2.8 6.3 6.2 6.3c3.4 0 6.2-2.8 6.2-6.3s-2.8-6.3-6.2-6.3zM296.2 225.3c2.4.4 4.5-.7 4.9-2.4v-.4c0-4.1-8-5.1-8.6-1.2-.3 1.7 1.3 3.5 3.7 4zM265.5 69.6c2.8-1.6 6.3-2.5 10.2-2.9-2.4-.8-4.2-2.8-6.2-2.8-4 .1-2.8 3.5-4 5.7zM284.2 205.3c-2.6 2.6-1.2 8 1.7 8 .8 0 1.5-.4 1.9-.8.8-.8 1.4-2.1 1.4-3.5.1-3.8-3-5.8-5-3.7zM320.2 222.5c1.9-1.3 2.9-3.6 1.9-5.1-1.6-2.6-6.9-.8-7.6 2.8-.6 2.7 2.6 4.3 5.7 2.3zM146.6 244.4c0-4.5-6.6-6.8-11.5-7.6-3.3 4.2-11.7 7.3-11.7 12.7 0 3.3 3 6.5 8.2 9.3-1.4-7 15-9.2 15-14.4zM83.5 75.3c0 .9-.6 2.7.5 3 1 .4 1-2.7 2.9-2.9 1.6-.2 1.5 1.3.3 3.3 2.4-.6 4.7-1.6 5.7.5.9 1.9.4 3-1.1 4.5s1.5 10.8 7.3 8.3c6.3-2.7 1.2-10.9-.5-10.9-2.1 0-3.2-.5-3.9-2.5-.7-2.3 1.6-3.2 3.7-4.4-2.2-.7-3.3-1.7-2.1-2.6 1.5-1.1 3.6 1 4.1 0 .5-1-1.1-1.8-1.7-2.5-1.3-1.3-1.6-.8-13.1 3.7-1.3.7-2.1 1.2-2.1 2.5zM81.7 245.2c-2 0-3.6 1.1-8.1 3.5l6.8 11.7 4-2.2c8.1-4.3 3.4-13.1-2.7-13zm.2 10.2c-.4-.6-2.9-4.8-3.1-5.3.3-.2.7-.4.7-.4 1.7-.8 3.4-1.5 4.8.7 1.5 2.3-.2 3.8-2.4 5zM99.7 63.7c2.1-1.7.3-3.6 3-7.7-2.9 1.8-7.2 3.6-10.9 5.1 1.6 2.8 5.2 4.8 7.9 2.6zM84 64.2c-3.7 1.4-8 3.1-11.4 3.8 4.7 1.2 4.7 3.8 7.4 3.6 3.4-.3 4.6-4.2 4-7.4z"/><path class="st1" d="M22.8 142zM202.5 131.2c-4.8-6.2-10.9-10.5-17.5-12.4-.2-1.5-2-1.9-2.3-.5-.1-.1-.2-.1-.3-.1-.4-.3-.9-.6-1.5-.7 0 .7.2 1.3.5 1.8v.1c-1.4 0-1.4 1.9 0 2.3V136c-.6 0-1.2.2-1.7.8.5.5 1.1.7 1.7.8V153c-.9.2-1.2 1.2-1 1.7.2.3.5.6 1 .6v.3c-.2.4-.4.9-.4 1.4.5 0 1-.1 1.4-.4h.4c.1 1.4 1.8 1.4 2.2 0h10.1c0 .6.2 1.2.8 1.8.5-.6.7-1.2.8-1.8h11.5c.2 1 1.2 1.4 1.7 1.1.3-.2.6-.5.6-1.1h.2c.4.2.9.4 1.5.4 0-.6-.2-1-.4-1.4v-.4c.5 0 .8-.3 1-.6.2-.6-.2-1.6-1.2-1.7-1-6.9-3.5-13.6-7.4-19.4.5-.4.9-.9 1.1-1.8-.8-.1-1.5.2-2 .5-.3-.3-.6-.6-.8-1zm8.4 24.4h-28.5v-36.5c7.3 1.4 14.1 5.9 19.4 12.7 5.2 6.8 8.4 15.2 9.1 23.8z"/><path class="st1" d="M182.9 119.9v35.2h27.4l-.1-.5c-.8-8.1-4-16-8.9-22.3-5.4-7.1-11.4-10.5-18.4-12.4zm19.6 16.7c.2.1.5.2.8.1 3 4.9 4.9 10.5 5.8 16.2-.3-.2-.8-.3-1.3-.3 0 .6.2 1.1.5 1.5h-9.6c-.1-1-1.1-1.6-2-.6 0-.6-.2-1.2-.8-1.7-.5.6-.8 1.2-.8 1.7-.5-.5-.9-.6-1.3-.5-.3.1-.6.5-.7 1h-8.2c.2-.4.4-.9.4-1.5-.6 0-1.1.2-1.5.5v-13.6c1.2 0 1.7-1.2.7-2 .6 0 1.2-.2 1.7-.8-.6-.5-1.2-.8-1.7-.8 1-.9.5-2.1-.7-2.1v-11.5c.3.2.7.4 1.2.5 0-.6-.1-1.1-.3-1.5 5.7 1.8 11.1 5.6 15.3 10.9-.2.3-.3.6-.2.9.1.4.5.7 1.2.8-.4.4-.8.9-.9 1.7.7.1 1.4-.1 1.8-.4 0 .8.2 1.3.6 1.5z"/><path class="st1" d="M200.4 139.5c-.5-1 0-1.9-1.3-3.6-.1-.4-.2-.9-.4-1.6-.7 1.2-.9 3.4.8 5.3 1.4 1.5 4.3 3 4.2 4.3-.1.7-1 1.2-2.8-.3l-.3-.3c-1.2-1.2-2.3-2.9-3.1-3.8-1.3-1.8-.7-3.5-.5-4.9 1-1.4-.6-4.1-1.5-4.8 0 0 .2-.6-.1-1.4-.2.2-.6.1-.8.1-.3-.5-.4-.6-.7-.7-.6-.1-.6-.5-.6-.7-.3.3-.5.6-.8.6-.5 0-.7 0-.9.2-.9.8-1.6-.1-1.5 1.1.1.5.1.7.6.9l.4.5.3-.6c.2-.2 1-.3 1.1.2.1.4.2.5-.3.5-1.4.2-1.5-.1-1.5.8 0 .3.4.5 1 .3.7-.2 1.8-.3 1.8.3 0 1.5-1.8 1.4-2.1 3.2-.4-.3-.8-.6-1-.9-.5-1-1.8-2.2-2.5-2.6-1.1-.7-.3-1.8-.4-2.7 0-.6-.6-1-.9-1 .1.1.3.2.3.5-.3.3-.5.6-.2.8 0 .1.1.1.1.1 0 .1-.1.4-.1.2-.2-.5-.3-1-.9-.9 0-.6-.5-.7-.8-.3.6.2.3 0 .3.6 0 .4.3.6.7.6.1 0 .1 0 .1.1.1.1.1.3 0 .2-.7-.3-1 0-1 .3v.3c-.2.2-.3.5.1.8 0-.1 0-.4.1-.4h.1l.2.2c.2.1.4-.2.6-.1.1.1.3.2.2.3-.4.4-.4.9.2 1-.2.5-1.1.2-1-.5-.6.9.4 1.6 1.2 1.3 0 .4 0 1 .1 1 0-.2.2-.3.2-.1 0 .2.1.5.4.5 0-.2 0-.3.1-.3.8 1.3 1.4 3.1 3.3 3.9-1.5.9-2.7 3.4-3.7 2.7-.2-.1-.2-.3-.5-.5s-.5-.2-.8 0c-.3-.1-.8 0-.9.3.2 0 .3-.1.6.1 0 .5-.1.8 1 .7.1 0 .2 0 .1.1s-.2.2-.5.2c-.7-.2-.5-.5-1.1.2-.4 0-.8.8-.4 1.1 0-.1.1-.4.3-.6.5.7.7.8 1.3-.1.1-.1.1 0 .1 0 0 .4-.5 1 .1 1.1 0 0 .1 0 .3.1 0 .5.7.8 1 .6-.2-.1-.5-.2-.6-.6.1 0 .2 0 .3-.1.3-.3-.1-.7.1-1 .1-.1.1-.1.1 0 .1.2.4.6.9.3.3-.1.4-.4.4-.6.6-.2 1.2-.4 1.6-.3-.1-.3.3-.8.9-1 .7-.2.9 0 1.2.2.1-.3.3-.8.7-1.2-.1 2.6 3.4 2.6 4.2 4.1-3.4-1.4-5.2.5-5.4 1.4-.2.8.7 2.2 1.5 2.8-1 .2-1.3-.2-2.3.1h-.1c-.9.1-1.1-1.8-2.1-.8-.4 0-.9.4-.8.8.1-.1.3-.3.6-.3 0 .3 0 .5.3.5.2 0 .5-.2.5 0 0 .4-1.2-.2-1 .8 0 0 .1.2.2.3-.1.3.2.6.7.4-.1-.1-.3-.2-.2-.4h.2c.1 0 .1-.2.2-.2.2 0 0 .1 0 .3l.1.3c-.1.4.5.7 1 .4-.2 0-.5-.1-.5-.3.1 0 .2-.1.2-.1.2-.1.1-.4.2-.4s.4 0 .4.1c.2.4.8.5 1.1 0 .1.1.3.2.4.3-.1-.4.2-.7 1-.1l.6-.5s.8.3 1.1 0c.8-.7-.2-1.3-.5-2.3-.3-1.3 1.5-2 2.6-1.8.2.8 1.4 3 3.3 3.7 1.4.5 2-1.5 2.2-.4-.1.6.1 1.2-.1 1.5-.1.3-.8.1-1.2 0-.2 0-.5.2-.5.2-.4.1-.8.4-.8.8.8-.6.7-.2.7-.2.1.5.7.7 1 .3 0-.1.2 0 .1.1-.8.6-.6.8-.1 1 0 .3.2.6.5.7-.1-.2-.1-.2 0-.6h.2c.3 0 .2-.6.5-.8h.1c-.1.4-.2.8.2.9h.3c.1.3.5.5.9.3-.1 0-.3-.1-.4-.3.1-.1.2-.3.2-.3.2-.8-.4-.8-.4-1.1 0-.4.8-.1.8-.9v-.1c.4-.2.7-.5.7-.7-.4 0-.8-.1-1-.2.5-.3 1-.6 1.1-1.1-.6.2-1-.1-1.2-.2.4-.2.9 0 .4-.7-.5-.8-.8-.8-1.3-.3s-3.8-.1-3.8-2.6c.9 1.5 4.1 2.1 4.3 0 .1-1.4-1.2-2-2.6-3.2-.4-.6-.9-1-1.3-1.4z"/><path class="st2" d="M191.4 129.9"/><path class="st1" d="M144.9 164.9c-.8 0-1.5.7-1.5 1.6 0 .9.7 1.6 1.5 1.6.5 0 .9-.2 1.2-.6l-.8 1.9c.2.1.5.2.8.3-.9 9.5 5.8 21.6 18.1 25.3 1.8-.5 3.9-.2 3.9 1.9 0 1.2-.6 1.8-1.7 1.8-.7 0-1.2-.4-1.2-.9 0-.8 1.4-.3 1.6-.9.2-.8-.3-1.1-1.2-1.1-.9 0-2.1.6-2.1 2 0 1.7 1.3 2.7 2.8 2.7 1.4 0 4.3-.8 3.8-4.2.7 0 1.4-.1 1.6-.7l.2-1.9-.7-.1.5-21.8h.5c.8.1 1.5-.3 1.5-1.2.1-.9-.6-1.3-1.3-1.4h-.7v-.7c.1-2.4-1.3-4.2-3.9-4.2-2.3 0-6.7 3-12.9 3-2.6 0-5.8-1.3-7.8-2.5l-.8 1.9v-.2c.1-.9-.6-1.6-1.4-1.6zm23 1.5c1 0 1.2.5 1 2.5h-.5c-.7 0-1.5.3-1.5 1.1-.1.9.5 1.3 1.3 1.4h.4l-1 6.2-6.1-8.8c2.9-1.2 5.2-2.4 6.4-2.4zm-7.8 3l7.2 10.5c-.2 1.5-.4 3-.7 4.4l-9.6-14c1-.3 2.1-.6 3.1-.9zm-6.9 1.4c.7 0 1.4-.1 2.1-.2l10.9 15.9c-.2 1.5-.5 2.9-.7 4.1L152 170.7c.5 0 .9.1 1.2.1zm-3 .1l14.9 21.8c-7.9-3-15.9-10.5-14.9-21.8zM162.3 123.4l-.6-.3c-.1.3-.2.5-.1.9-.3 0-.6.8-.9.7.1.2.2.3.3.3-.2.5-.3 1-.6 1 .1.2.2.2.2.3-.3.7-.4 1.5-.4 1.9-.7-.8-1.2-.5-1.1-1.6.1-.4.4-.8.4-1.2 0-.6-.4-.9-.7-.8.1.1.2.2.2.4l-.2.2c-.1.1-.2.3 0 .4v.1c0 .1-.1.3-.1.2-.1-.5-.2-.8-.7-.8v-.1c0-.3-.3-.6-.8-.2.1 0 .2 0 .3.1-.3.4-.2.7.4.8.2 0 .1.1.1.2s0 .1-.1 0c-.6-.3-.9 0-.9.2v.2c-.2.1-.3.4 0 .7 0-.1 0-.3.2-.3h.1c.1.2.3.2.5 0h.2s.1.1.2.1v.1c-.5.4-.5.7.1.8.1 0 .1.1.1.1-.2.7-1.1.5-1-.2-.7.8.2 1.4 1 1h.1c0 .1.1.2.2.3 0 0 .1-.2.2-.1.1 0 .1 0 .1.1 0 .2 0 .4.3.4 0-.1 0-.3.1-.3s.3.6.8 1c-.7.3-1.8.6-1.9.6-.2 0-1.1-.1-1.5.1-.5.2-1.6.7-2 .2-.1-.2-.1-.3-.2-.6-.1-.2-.3-.3-.4-.3h-.3c-.2-.2-.6-.2-.8-.1.1 0 .3.1.4.3-.1.1-.1.2-.1.2-.1.2 0 .4.7.7 0 0 .1.1 0 .1-.5.3-.6-.7-1.1-.4 0 0-.1.1-.2.1-.4-.1-.9.3-.7.7 0-.1.2-.3.4-.3.2.6.2 1 1.1.4.1-.1.1 0 .1.1-.2.3-.7.7-.3.9l.2.2c-.1.5.4.8.6.8-.1-.1-.3-.3-.2-.7.1 0 .2.1.2.1.4-.2.2-.6.4-.8.1-.1.1 0 .1 0 .1.9 1.2.6 1.1-.1.1.1.3.3.2.5.1 0 .3-.2.3-.3.1.2.1.5-.2.8.2-.1.6-.3.7-.8.1.1.1.2.2.2.2 0 .4.1.9 0 .1 0 0 .3.1.5 0-.1.1-.2.2-.2s0 .5.3.7c.1-1.1.7-.7 1.4-1.1.1-.2.1.2-.2.4.3 0 .9-.2.9-.7 0-.1.2-.2.5-.4.2.1.6-.1.8-.4 0 .1.2.5 0 .5.7 0 1.5-.8 1.8-.9 1.6-.3-1-1.5 2.3-1.3.2 0 .7-.1.9-.3-.2.5-.3 1.5.2 1.6.2 0 .7.2.8.4.1.1-.5.1-.7.3-.8.5-.8-1.2-1.6-.8l-.2.1c-.3 0-.7.4-.7.7.1-.1.3-.3.5-.3 0 .3 0 .4.3.4.2 0 .4-.2.4 0 0 .3-1-.2-.8.7 0 0 .1.2.1.3 0 .3.2.5.6.4-.1-.1-.2-.2-.2-.3h.2c.1 0 .1-.2.2-.2 0 0 .1 0 .1.1 0 0-.1.1-.1.2 0 0 .1.2.1.3 0 .3.4.6.8.3-.1 0-.4-.1-.4-.2.1 0 .2-.1.2-.1.1-.1 0-.4.2-.4h.2c.1 0 .1 0 .2.1.1.2.3.4.6.3.5-.2.1-.7.5-.8.4 0 1.3.2 1.5-.1.1-.2.1-1-.4-1.2-.3-.1 0-.4-.2-.8.5.2 1 .4 1.6.4 1.2 0 .1-.2.6-.5.6-.4 1.2-.2 1.4-.2.2 0 .3.1.2.3-.1.6.1.7-.1.9-.1.2-.6 0-1 0-.2 0-.3.1-.4.2-.3.1-.6.3-.6.7.2-.2.5-.4.5-.1.1.4.5.6.8.3h.1c-.7.6-.4.7-.1.8 0 .3.2.5.4.6-.1-.1-.1-.2 0-.5h.2c.2 0 .1-.5.4-.7 0 0 .1 0 0 0-.1.3-.1.7.1.7 0 0 .1 0 .2.1.1.2.4.4.7.2-.1 0-.3-.2-.3-.3.1-.1.2-.2.2-.3.2-.6-.3-.6-.3-.9 0-.3.6-.1.6-.7 0-.1-.1-.3-.3-.4.2 0 .4 0 .4-.2-.5 0-.3-.4-.4-.6v-.1c.1-.1.2-.3.2-.7-.1.2-.6.4-.7 0 0 0 0-.3-.5-.2-.8.1-1.2-.3-2.6-.5-.1 0-.2-.1 0-.1 3 0 4.5-1 4.5-1.9 0-3.4-8.3-1.3-8.3-3.4 0-.3.2-.6.6-.9 4.2-.3 4.4-3.3 7.3-3.9-3.6-.5-4.1 2.4-5.7 2.5.8-.4 1.1-1.4 1.1-1.8-.7 1-3.7 1.7-3.4 2.8-.5.3-.9.7-.9 1.2 0 3.2 8.4 1 8.4 3.3 0 .8-1.5 1.4-3.8 1.4-1.7 0-3-1.3-6.2-.4 0-.5 1.1-1.6.7-2.1.3-.1.5-.4.5-.7-.2-.2-.4-.2-.6-.3.1-.2 0-.3-.2-.5 0-.1-.1-.4-.2-.5-.1-.1-.4-.3-.7-.5-.7-.4-1.2-.1-1.2-.1 0 .4-.2.4-.2.6zm1.3 1.5c.1.1.7.3 1 .4-.5.1-.3.3-.7.3-.2-.1-.4-.5-.3-.7zm-.2.7c.1 0 .2.1.2.2s0 .2-.1.3c-.1 0-.1-.3-.2-.3s-.1.1-.1.3c-.2-.1-.4-.2-.5 0-.1.1-.1.3.1.4.1.1 0 .2-.1.4-.2.7-1 .2-.7-.3.1-.2.2-.3.2-.3.2 0 .3 0 .3-.2.1-.2-.1-.3-.3-.4.2 0 .3-.1.2-.2-.1-.1-.3.1-.3 0s.1-.2.1-.2c.1-.1.2 0 .2 0l1 .3zm-.4-1.1c-.1.2-.4.4-.6.2-.2-.2 0-.3-.2-.7.2.2.7.5.8.5zM167.4 135.8c1.6 0 2.1-.5 2.2-.9-1.3.8-4.4-.6-5.3.7-2-.1-3.6-.1-3.6 1.3 0 2.8 7.5 1.2 9.9 1.2 2.4 0 2.9.2 2.9.7 0 .7-2.3.8-3.7.8-2.1 0-8.2-1.1-12-.3.3-.6 1-1.4.6-1.9.3-.2.6-.4.6-.7-.2-.2-.5-.3-.7-.3.1-.2 0-.4-.2-.5 0 0-.1-.4-.2-.5-.9-.8-.9-.6-1.7-.8-.1 0-.5.1-.5.1-.2 0-.4 0-.5.2-.2-.2-.4-.2-.7-.3-.1.3-.2.6-.1 1-.3 0-.7.9-1 .8.1.2.2.3.3.4-.3.5-.4 1.1-.7 1.1.2.3.4.4.5.4 0 .4-.1.8-.1 1.1-.7-.3-.5-.2-1.1-.4-.3-.3-.7-.7-1.2-1.1-.5-.3-.5-.6-.5-1.2 0-.9.4-.8.2-1.8-.1-.3-.5-.6-.7-.5.1.1.3.2.3.5-.3.2-.5.5-.2.8.1 0 0 .5-.1.3-.1-.5-.3-1-.8-.9.2-.4-.3-.8-.8-.3.1 0 .3 0 .3.2-.2.6-.1.9.5.9.1 0 .1.1.2.2 0 .1 0 .1-.1.1-.7-.3-1 0-1 .6-.2.2-.3.5.1.8 0-.2 0-.4.2-.4 0 .1.2.1.2.1.1.1.4-.2.5-.1.1.1.3.1.2.2-.4.4-.4.8.2.9.1 0 .1.1.1.1-.1.8-1.1.6-1-.2-.6.9.4 1.6 1.2 1.2h.1c0 .1.1.3.2.3 0-.1.2-.3.2-.1 0 .2.1.5.4.5 0-.1 0-.3.1-.3.2 0 .5.6 1.1 1 .5.2.9.8 1.2.4-.1.6.5 1.2.3 1.2s-1.6-.1-2 .1c-.5.3-1.8.8-2.2.2-.2-.2-.1-.4-.3-.7-.2-.4-.4-.4-.7-.4-.2-.2-.7-.3-.9-.1.2 0 .3.1.5.3-.5.5 0 .8.6 1 0 0 .1.1 0 .1-.6.3-.5-.9-1.5-.3-.3-.2-1 .3-.7.8 0-.1.2-.3.4-.4.2.8.3 1 1.2.4.1-.1.1 0 .1.1-.4.7-.9.7-.1 1.2-.2.2.2 1 .7.9-.1-.1-.3-.4-.3-.7.1 0 .2.1.2.1.4-.2.2-.7.5-.8.1-.1.1 0 .1.1.2 1.1 1.4.6 1.3-.1.2.1.3.3.2.5.1 0 .3-.2.4-.4.1.2.1.6-.2.9.2-.1.7-.3.8-.8.1.1.2.2.2.3v-.1c.2.1.5.1 1 0 0 .2 0 .4.1.5 0-.1.1-.3.2-.3s0 .5.3.8c.1-1.3.8-.8 1.6-1.3.2-.1 0 .3-.3.5.9.2 2.2-1.1 2.4-1.7.4 0 .7-.1.8-.1 2.5.2.7-2.2 4.7-1.6.3.1.7-.2 1-.4-.3.5-.3 1.6.2 1.7.4 0 1.2.4.9.5-.3 0-.7.1-.8.2-.9.6-1-1.8-2-.7-.3 0-.8.4-.8.8.1-.1.3-.3.6-.3 0 .3 0 .5.3.5.2 0 .2-.1.3-.1.1 0 .1 0 .1.1 0 .3-1.1-.2-.9.7 0 0 .1.2.2.3 0 .3.2.6.7.4-.1-.1-.3-.2-.2-.3h.2c.1 0 .1-.2.2-.2.2 0 0 .1 0 .3l.1.3c-.1.4.4.7.9.4-.1 0-.4-.1-.5-.3.1 0 .2-.1.2-.1.1-.1.1-.2.1-.3 0-.1 0-.1.1-.1s.4-.1.4.1c.1.2.4.4.7.3.6-.2.1-.7.6-.8.4 0 1.4.3 1.6-.1.1-.2.1-1.1-.4-1.4-.3-.2 0-.5-.3-1 3.3 1.4 3.4-.8 5.5-.3.2 0 .3.1.2.3-.1.7.1.7-.1 1.1-.1.2-.7 0-1.1 0-.2 0-.4.2-.4.2-.3.1-.7.4-.7.7.1-.1.3-.3.6-.3 0 .7.5.8.8.5 0-.1.2 0 .1.1-.3.2-.7.7-.3.8 0 0 .1.1.2.1 0 .3.2.6.4.6-.1-.2-.1-.2 0-.6h.2c.3 0 .2-.6.5-.7 0 0 .1 0 0 0-.2.8 0 .8.4.9.1.2.4.4.8.2-.1 0-.3-.2-.3-.3.1-.1.2-.3.2-.3.2-.7-.4-.7-.4-1 0-.4.7-.1.7-.8 0-.1-.1-.3-.3-.4.2 0 .4 0 .5-.2-.5 0-.3-.4-.4-.7v-.1c.2-.1.3-.4.2-.7-.2.2-.7.5-.8 0 0 0 0-.4-.6-.3-.8.1-1.4-.1-3.1-.2 1.8 0 4.6-.5 4.6-1.5 0-.9-1-1.4-3.8-1.4s-9.2 1.1-9.2-.5c0-.8 1.2-.7 2.7-.7.1.1.3.3.6.4 3.6 1.1 7.9-.9 10.1-.2-1.8-2.3-3.9-.2-6.7-.8zm-11.2.2c-.1.3-.4.5-.7.2-.2-.2 0-.3-.3-.8.3.3.9.6 1 .6zm.6 1.8c-.1 0-.1-.3-.2-.3s-.1.1 0 .3c-.2 0-.4-.2-.5 0-.1.2-.1.3.1.5.1.1 0 .2-.1.5-.3.7-1.2.2-.8-.4.1-.2.2-.3.3-.3.2 0 .3-.1.4-.2.1-.2-.1-.3-.3-.5.2-.1.3-.1.2-.2-.1-.1-.3.1-.4 0-.1-.1.1-.2.2-.2.1-.1.2-.1.3 0l.9.4c.1.1.2.1.2.2-.2 0-.2.1-.3.2zm.5-.7c-.3 0-.4-.4-.4-.7.1.1.8.3 1.1.4-.5.1-.4.3-.7.3zM163.9 148.1c.1.2.3.3.6.4 3.6 1 7.4-1.4 10-.5-2.1-1.9-4.7.2-7.5-.4 1.6 0 3.3-.3 3.4-.8-1.3.9-5.4-.7-6.5.6-2.7 0-5.9-.4-5.9 1.3 0 3.7 15.1-.3 15.1 1.9 0 2.1-13.7-.8-18.8.7.2-.6 1.1-1.6.7-2.1.3-.2.6-.4.6-.7-.2-.2-.5-.3-.7-.3.1-.2 0-.4-.2-.5 0 0-.1-.4-.2-.5-.8-.7-1-.7-1.7-.8-.1 0-.5.1-.5.1-.2 0-.4 0-.5.2-.2-.2-.4-.3-.7-.3-.2.3-.2.6-.1 1-.3 0-.7.9-1 .8.1.2.2.3.3.4-.3.5-.4 1.1-.7 1.1.1.2.2.3.3.3-.1.3-.1.6-.1.9l-.3-.1c-2-.2-1.1-.5-2.4-1.3-1.2-.7 0-1.9-.5-3-.1-.3-.5-.5-.8-.5.1.1.3.2.3.5-.2.2-.5.5-.2.8.1.1 0 .5-.1.3-.2-.5-.3-1-.8-.9 0-.5-.4-.7-.8-.3.1 0 .3.1.3.2-.2.6-.1.9.6.9.1 0 .1 0 .2.2h-.1c-.7-.3-1.1.1-.9.6-.2.2-.3.5.1.8 0-.4 0-.3.2-.4l.2.2c.2.1.3-.2.5-.1.1 0 .1.1.2.1s0 .1 0 .1c-.4.4-.4.8.2.9.1 0 .1.1.1.1 0 .8-1.1.7-1-.2-.6.9.5 1.6 1.2 1.2h.1c0 .2.1.3.3.3 0-.1.2-.2.2-.1 0 .2.1.5.4.5-.1-.2 0-.3.1-.3.2 0 .7 1.1 1.9 1.8.2-.1.5-.1.6-.3 0 .1.1.2.2.3 0 .5.4 1.2.3 1.2-.2 0-2-.1-2.3.1-.5.3-1.8.8-2.2.2-.1-.2-.1-.4-.3-.7-.2-.3-.4-.4-.7-.4-.2-.2-.7-.3-.9-.1.2 0 .3.1.5.3-.2.4-.4.7.6 1 0 0 .1.1 0 .1-.6.3-.7-.8-1.2-.4 0 0-.1.1-.2.1-.3-.2-1 .3-.8.8 0-.1.2-.3.5-.4.1.9.5.9 1.2.4.1 0 .1 0 .1.1-.2.3-.8.7-.3 1 0 0 .1.1.2.1-.2.3.2 1 .7.9-.1-.1-.3-.4-.3-.8.1 0 .2.1.2.1.4-.2.2-.7.5-.8.1 0 .1 0 .1.1.1 1.1 1.4.6 1.3-.1 0 0 0-.1 0 0 .2.1.3.3.2.5.1-.1.3-.2.4-.4.1.2.1.6-.2.9.2 0 .7-.3.8-.8.1.1.2.2.2.3.2 0 .5.1 1 0h.1c0 .2 0 .4.1.5 0 0 .1-.2.2-.2s0 .5.3.8c.1-1.3 1.6-.6 2.4-1.1h.1c-.1.1-.2.3-.3.4.4 0 2.4-.9 2.3-1.3.1 0 .3-.1.4-.1 0 0 0 .2-.1.2.8.1.7-.7 1-.7 4.6.6 2-2 7.4-1.5.3 0 .4-.1.6-.3-.3.5-.3 1.4.3 1.5.8.2 1 .5.9.5-.3.1-.7.1-.8.2-.8.6-.9-1.3-1.7-.9-.1 0-.2.1-.2.2-.4 0-.8.4-.7.8.1-.1.3-.3.6-.3-.1.3 0 .5.3.5.2 0 .2-.1.3-.1.1 0 .1.1.1.1 0 .3-1.1-.2-.9.8 0 0 .1.2.2.3 0 .3.2.6.7.4-.1-.1-.3-.2-.2-.3h.2c.1 0 .1-.2.2-.2l.1.1s-.1.1-.1.2c0 0 .1.2.1.3 0 .3.5.7 1 .4-.1 0-.5-.1-.5-.3.1 0 .2-.1.2-.1.1-.1.1-.2.1-.4 0-.1.2-.1.3-.1.1 0 .1 0 .2.1.1.2.4.4.7.3.6-.2.1-.7.6-.8h.4c.5.1 1.2.1 1.3-.1.1-.2.1-1.1-.5-1.4-.3-.2 0-.5-.3-1 .5.2 1.1.5 1.8.5 2.6 0 1.5-1 3.7-.7.2 0 .3.1.2.3-.1.7.1.7-.1 1.1-.1.3-.7.1-1.1 0-.2 0-.4.1-.4.2-.3.1-.7.4-.7.7.1-.1.3-.3.6-.3 0 .6.6.8.9.4 0 0 .2 0 .1.1-.2.2-.7.7-.3.8 0 0 .1.1.2.1 0 .3.2.6.4.6-.1-.1-.1-.2 0-.6h.2c.3 0 .2-.6.5-.8h.1c-.1.3-.2.7.1.8 0 0 .1.1.2.1.1.2.4.4.8.2-.1 0-.3-.2-.3-.3.1-.1.2-.2.2-.3.2-.7-.4-.7-.4-1 0-.3.7-.1.7-.8 0-.3-.3-.5-.3-.5.2 0 .4.1.5-.2-.5 0-.3-.4-.4-.7v-.1c.2-.1.3-.3.2-.7-.2.2-.7.5-.8 0 0 0-.1-.4-.6-.3-.8.1-1.4-.1-3.1-.2 1.6-.1 4.6-.5 4.6-1.5 0-3.3-15.3.5-15.3-2 0-1.1 2.9-.7 5.1-.7zm-11.1-.1c-.2.2-.5.4-.7.2-.2-.2 0-.3-.3-.8.3.2.8.6 1 .6zm.6 1.7c-.1 0-.1-.3-.2-.3s-.1.1 0 .3c-.2-.1-.4-.2-.5 0-.1.2-.1.3.1.5.1.1 0 .2-.1.4s-.3.5-.6.3-.3-.5-.2-.7c.1-.2.2-.3.3-.3.2 0 .3 0 .4-.2.1-.2-.1-.3-.3-.5.2-.1.3-.2.2-.3-.1-.1-.3.1-.4 0 0-.1.1-.2.2-.2.1-.1.2-.1.3 0l.9.4c.1.1.2.1.2.2-.3.2-.2.4-.3.4zm.5-.6c-.3 0-.5-.4-.4-.7.1.1.8.4 1.1.4-.5.1-.4.3-.7.3zM182.2 172.1c-.3-.2-.4-.6-.7-.4 0 0-.1 0-.2.1h-.1c-.4 0-.9.4-.7.8.1-.1.2-.3.4-.4 0 .1.1.2.1.2.1.4.3.8 1.1.2.1-.1.1 0 .1.1-.2.4-.8.7-.3 1 0 0 .1.1.2.1v.1c-.1.5.4.8.7.8-.1-.1-.3-.4-.3-.8.1.1.2.1.2.1.4-.2.2-.7.5-.8.1 0 .1 0 .1.1 0 .2.1.7.6.6.5-.1.7-.4.6-.7h.1c.2.1.3.3.2.5.1 0 .3-.2.4-.4.1.2.1.6-.2.9.2-.1.7-.3.8-.8.1.1.2.2.2.3.2.1.5.1 1 0 0 0 .1 0 .1.1 0 .2 0 .4.1.5 0-.1.1-.3.2-.3s0 .5.3.8c.1-1.3.8-.7 1.6-1.3.1-.1.1 0 .1.1-.1.1-.2.3-.3.4.3.2 1.4-.5 1.4-1 0-.1.4-.2.8-.2.8 0 .7-.6 1-.6 4.6.6 2-2 7.4-1.5.3 0 .4-.3.6-.5-.3.5-.3 1.6.2 1.7.2.1.7.2.9.4v.1c-.3 0-.7.1-.8.2-.8.6-.9-1.3-1.8-1 0 0-.2.1-.2.2-.4 0-.8.4-.7.8.1-.1.3-.3.6-.3v.2c0 .1 0 .3.3.3.2 0 .2-.1.3-.1.1 0 .1.1.1.1 0 .4-1.1-.2-.9.8 0 0 .1.2.2.3-.1.3.2.6.7.4-.1-.1-.3-.2-.2-.4h.2s.1 0 .1-.2h.1c.1 0 .1 0 .1.1s-.1.1-.1.2c0 0 0 .3.1.3 0 .4.5.7 1 .4-.1 0-.5-.1-.5-.3.1 0 .2-.1.2-.1.1-.1.1-.2.1-.3 0-.1 0-.1.1-.1h.2c.1 0 .2 0 .2.1.1.2.4.4.7.3.6-.2.1-.7.6-.8h.3c.5.1 1.2.1 1.3-.1.1-.2.1-1.1-.5-1.4-.3-.2 0-.5-.2-1 .5.2 1.1.4 1.8.4 1.3 0 1.7-.2 2.3-.6.7-.4 1.4-.2 1.6-.2.1 0 .3.1.2.3-.2.7 0 .8-.2 1.1-.2.2-.7 0-1.1 0-.2 0-.4.1-.4.2-.3.1-.7.3-.7.7.1-.1.3-.3.6-.3v.1c0 .5.5.6.8.3.1-.1.2 0 .1.1-.8.6-.6.7-.2.9-.1.3.1.6.3.6-.1-.1-.1-.2.1-.5h.2c.3 0 .2-.6.5-.8h.1c-.1.3-.2.7.1.8 0 0 .1 0 .2.1.1.3.4.4.8.2-.1 0-.3-.2-.3-.3.1-.1.2-.2.2-.3.2-.7-.3-.7-.3-1 0-.3.7-.1.7-.8 0-.1 0-.3-.3-.4.2 0 .4 0 .5-.2-.5 0-.3-.4-.4-.7v-.1c.2-.1.3-.3.3-.7-.2.2-.8.5-.8 0 0 0 0-.4-.5-.3-.8.1-1.7-.1-3.3-.3-.1 0-.2-.1 0-.1 2-.1 4.6-.4 4.6-1.4 0-3.4-15.2.6-15.2-2 0-1 2.9-.6 5.1-.5.1.2.3.3.6.4 3.6 1.1 7.7-1.7 9.9-1.1-2.8-1-4.7.7-7.4.2 1.6 0 3.3-.3 3.4-.8-1.3.8-4.8-.6-6.3.4l-.2.2c-2.7 0-5.9-.4-5.9 1.2 0 2.8 9.9 1.2 12.2 1.2 2.4 0 2.9.2 2.9.7 0 .7-2.3.9-3.7.9-2.2 0-11.4-1.2-15.1-.1.2-.6 1.1-1.6.7-2.1.3-.2.6-.4.6-.7-.2-.2-.4-.3-.7-.3.1-.2 0-.4-.2-.5 0 0-.1-.4-.2-.5-.1-.1-.4-.4-.8-.6-.4-.2-.7-.2-.8-.2-.1 0-.5.1-.5.1-.2 0-.4 0-.5.2-.2-.2-.4-.3-.7-.3-.2.3-.2.6-.1 1-.3 0-.7.9-1 .8.1.2.2.3.3.3-.2.5-.4 1.1-.7 1.1.2.3.3.4.5.4 0 .3 0 .6-.1.8l-.5-.2c-.6 0-.3 0-.9-.1-.4 0-.8-.8-1.5-1.2-.5-.3-.6-.6-.6-1.2 0-.9.4-1 0-1.8-.1-.3-.5-.6-.7-.5.1.1.3.2.3.5-.2.2-.4.5-.2.7.1.1 0 .2 0 .4 0 .1 0 0-.1 0-.1-.4-.3-.9-.6-.9h-.2v-.1c0-.4-.4-.7-.8-.2.1 0 .3 0 .3.2-.2.6-.1.9.5.9.1 0 .1.1.2.2v.1c-.7-.3-.9 0-.9.3v.3c-.2.2-.3.5.2.8 0-.4.1-.4.2-.4.2.2.2.2.6 0 .1 0 .2.1.3.1.1.1 0 .1 0 .1-.4.4-.4.8.2.9.1 0 .1.1.1.1 0 .8-1.1.7-1-.2-.6.9.4 1.6 1.2 1.2h.1c0 .1.1.3.3.3 0 0 0-.2.2-.2.1 0 .1 0 .1.1 0 .2.1.5.4.5-.1-.2 0-.3.1-.3.2 0 .7 1.2 1.8 1.8 0-.1.4-.3.7-.4 0 .2.2.4.4.5l.2-.1c-.1.5.6 1.1.4 1.1-.2 0-1.3-.2-1.6.1-.5.3-1.8.8-2.2.2-.1-.2-.1-.4-.3-.7-.1-.2-.3-.3-.4-.4h-.3c-.2-.2-.7-.3-.9-.1.2 0 .3.1.5.3 0 .1-.1.2-.1.3-.1.2-.1.4.8.7.1 0 .1.1.1.1-.4.4-.6.4-.8.3zm7.6-6.6c.1.1.8.4 1.1.4-.5.1-.4.3-.7.3-.3 0-.4-.4-.4-.7zm-.7-.3c-.2.3-.4.5-.7.2-.2-.2 0-.3-.3-.8.4.2.9.6 1 .6zm-1 2.3c.1-.2.2-.3.3-.3.2 0 .3 0 .4-.2.1-.2-.1-.3-.3-.4.2-.1.3-.2.2-.2-.1-.1-.3.1-.4 0 0-.1.1-.2.2-.2.1-.1.1-.1.3 0l.9.4c.1.1.2.1.2.2s0 .2-.1.3c-.1.1-.1-.3-.2-.3s-.1.2 0 .3c-.2-.1-.4-.2-.5 0-.1.2-.1.3.1.5.1.1 0 .2-.1.4s-.3.5-.6.3c-.5-.3-.5-.7-.4-.8zM180 183.8c.1-.1.2-.3.4-.4 0 .1.1.2.1.2.1.4.2.7 1.1.2.1-.1.1 0 .1 0-.2.3-.7.7-.3 1l.2.2v.1c-.1.4.4.8.7.8-.1-.1-.3-.4-.3-.7.1 0 .2.1.3.1.4-.2.2-.7.4-.8.1 0 .1 0 .1.1 0 .2.1.6.6.6.4 0 .7-.4.6-.7 0 0 0-.1.1 0 .2.1.3.3.2.5.1-.1.3-.2.3-.3.1.2.1.5-.2.8.2-.1.7-.3.8-.8.1.1.2.3.2.2.2.1.5.1.9 0h.1c-.1.2-.1.4 0 .5 0-.1.1-.2.2-.2s0 .5.3.7c.1-1.2 1.1-.9 1.8-1.4.2-.1 0 .3-.2.4.8.5 1.6-.6 1.9-1.2l.2-.2c.1.1.1.2-.1.3.8.1.7-.6 1-.5 2.3.2.5-2 4.3-1.3.3 0 .7-.2.9-.4-.3.5-.3 1.6.2 1.6.4.1 1.2.5.8.5-.3 0-.6.1-.7.2-.8.5-.8-1.2-1.7-.9 0 0-.2.1-.2.2-.3 0-.8.4-.7.8.1-.1.3-.3.6-.3v.2c0 .1 0 .3.3.3.2 0 .2-.1.3-.1.1 0 .1 0 .1.1 0 .3-1.1-.2-.9.7 0 0 .1.2.2.3 0 .3.2.5.7.4-.1 0-.2-.2-.2-.3h.2c.1.1.1-.2.2-.2 0 0 .1 0 .1.1s-.1.1-.1.2c0 .7.6.9 1 .6-.1 0-.4-.1-.5-.2.1 0 .2-.1.2-.1.2-.1 0-.4.2-.4s.3-.1.4.1c.1.2.3.4.7.3.6-.2.1-.7.5-.8.4 0 1.4.2 1.6-.1.1-.2.1-1-.4-1.3-.3-.2 0-.5-.2-.9 1.6.7 3 .5 4.1-.1.6-.3 2-.3 1.7.1-.3.6-.1.7-.3 1-.2.2-.7 0-1 0-.2 0-.4.1-.4.2-.3.1-.8.3-.8.7.1-.1.4-.3.6-.3-.2.5.3.8.7.4 0 0 .2 0 .1.1-.5.4-.9.7-.3.9-.1.3 0 .5.2.6 0-.1 0-.2.2-.5h.2c.3 0 .3-.6.6-.7h.1c-.3.4-.4.8.1.8 0 .3.3.4.7.2l-.3-.3c.1-.1.2-.3.3-.3.4-.7-.2-.7-.1-1 .1-.3.7-.1.8-.8 0-.1 0-.3-.2-.4.3 0 .4 0 .5-.2-.5 0-.2-.4-.2-.7 0 0 0-.1.1-.1.2-.1.3-.3.4-.7-.2.2-.8.5-.7 0 0 0 .1-.3-.5-.2-1.1.1-4.4-.3-3.5-.3 1.5-.1 4.7-.2 4.7-1.5 0-.6-.4-1.4-2.9-1.2-2.7.2-8.7 1-8.7-.5 0-.8 1.6-.7 2.6-.6.1.2.3.3.6.4 3.5 1 7.4-1.6 9.5-1-2.7-1-4.4.7-7 .1 1.5 0 3.1-.3 3.2-.7-1.2.8-4.5-.5-6 .3-.1 0-.2.1-.2.2-1.4-.1-3.5-.1-3.5 1.2 0 3.6 11.4-.3 11.4 1.8 0 .7-2.6.8-3.8.8-1.9 0-7.8-1-11.4-.3.3-.6.9-1.3.6-1.8.3-.1.5-.4.6-.7-.2-.2-.4-.3-.7-.3.1-.2 0-.3-.2-.5 0 0-.1-.4-.2-.5-.1-.1-.4-.3-.8-.5s-.6-.2-.8-.2c-.1 0-.5.1-.5.1-.2 0-.4 0-.5.2-.2-.2-.4-.2-.6-.3-.1.3-.2.5-.1 1-.3 0-.7.8-.9.7.1.2.2.3.3.3-.2.5-.4 1.1-.7 1.1.1.2.2.2.3.3-.1.3-.1.7-.2 1l-.3-.1h-.2c-.4 0-.7 0-1.4-.4-.5-.3-.6-.6-.6-1.1 0-.5.2-.9.2-1.3 0-.1-.1-.3-.1-.4-.1-.3-.5-.5-.7-.5.1.1.3.2.3.5l-.2.2c-.1.1-.1.3 0 .5.1 0 .1.1.1.1 0 .1 0 .1-.1.2 0 .1 0 0-.1 0-.1-.3-.3-.9-.6-.9h-.2v-.1c0-.3-.4-.6-.8-.2.1 0 .2.1.3.2 0 .1-.1.3-.1.4 0 .3.3.5.6.5.1 0 .1 0 .1.1 0 0 0 .1.1.1 0 .1 0 .1-.1 0-.6-.3-.9 0-.9.3v.2c-.2.2-.3.5.1.7 0-.1 0-.3.1-.4h.1c.1 0 .2.1.2.1.1 0 .2 0 .3-.1h.2s.1.1.2.1.1.1 0 .1c-.4.4-.4.8.2.9.1 0 .1.1.1.1-.1.7-1.1.6-1-.2-.6.9.4 1.5 1.2 1.1h.1c0 .2.1.3.2.3 0 0 .1-.2.2-.2s.1.1.1.1c0 .2.1.5.4.5 0-.1 0-.3.1-.3s.1-.3 1 .2c.1.2.2.3.3.4l.7-.1c-.1.5.1 1.3-.1 1.3-.1 0-1.2-.1-1.5.1-.5.3-1.7.7-2.1.2-.1-.2-.1-.3-.3-.6-.1-.2-.3-.3-.4-.3h-.3c-.2-.2-.7-.2-.8-.1.2 0 .3.1.5.3-.1.1-.1.2-.1.3-.1.2 0 .4.7.7 0 0 .1.1 0 .1s-.3.1-.4-.1c-.3-.2-.4-.6-.7-.4 0 0-.1.1-.2.1h-.1c-.6-.2-1.2.3-.9.7zm9.6-6.9c.1.1.7.3 1 .4-.5.1-.4.3-.7.3-.3 0-.4-.4-.3-.7zm-.7-.3c-.1.3-.4.5-.7.2-.2-.2 0-.3-.2-.7.3.2.8.5.9.5zm-1 2.2c.1-.2.2-.3.3-.3.2 0 .3 0 .3-.2.1-.2-.1-.3-.3-.4.2-.1.3-.2.2-.2-.1-.1-.3.1-.3 0s.1-.2.2-.2c.1-.1.2-.1.3 0l.9.4c.1.1.2.1.2.2s.1.2 0 .3c-.1 0-.1-.2-.2-.3-.1 0-.1.1-.1.3-.2-.1-.4-.2-.5 0-.1.2-.1.3.1.4.1.1 0 .3-.1.4-.1.2-.3.5-.6.3-.5-.2-.5-.5-.4-.7z"/><path class="st2" d="M195 195.3"/><path class="st1" d="M187.4 197.4c.3 0 1.1-.3 1.1-.8 0-.1.5-.6.7-1.9h.3c.9-.1 1.4-.8 2.3-.8-.2.3-.3.9-.3 1.4 0 .5.7 1.1.9 1.3v.1c-.3 0-.6.1-.7.2-.7.5-.8-1.1-1.6-.8 0 0-.2.1-.2.2-.3 0-.8.4-.7.7.1-.1.3-.3.5-.3v.2c0 .1 0 .3.3.3.2 0 .4-.2.4 0 0 .3-1-.2-.8.7 0 0 .1.2.1.3 0 .3.2.5.6.4-.1-.1-.2-.2-.2-.3.2 0 .3 0 .3-.1.2 0 0 .1 0 .3.1.7.5.9.9.6-.1 0-.4-.1-.4-.2.1 0 .2-.1.2-.1.1-.1.1-.4.2-.4h.2c.1 0 .1 0 .2.1.1.2.3.4.6.3.6-.2.1-.7.5-.8.3-.2 1 .4 1.2 0 .1-.2.1-1-.4-1.2-.3-.2.4-1.9-.9-2.7.6.2 2.6.4 2.9-.1.6.1 1.8.7 1.3 1-.5.3-.5.5-.7.6-.2-.2-.3-.4-.5-.5-.2-.1-.4 0-.4 0-.3-.1-.7 0-.8.4.1 0 .4-.1.6 0-.1.2-.1.3.1.4v.1c-.9-.1-.8.1-.7.5-.2.2-.3.5-.1.7.1-.2.1-.2.4-.3 0 .1.1.2.1.2.2.2.5-.2.8-.2 0 0 .1 0 0 .1-.3.1-.6.3-.5.6 0 0 .1.1.1.2-.1.2 0 .5.3.7-.1-.6 0-.3.3-.5.6-.3.2-.7.4-.9.2-.2.5.4.9 0 .1-.1.2-.3.1-.5v-.1c.1.1.2.3.5.2-.3-.3 0-.5.2-.7 0-.1 0-.1.1-.1.2 0 .4 0 .6-.3-.2 0-.9-.3-.5-.5.6-.2.7-.6.4-.9-.5-.6-1.4-.7-1.5-1.3h.9c3 0 4.9-.8 4.8-1.8 0-.8-.9-1.1-3-.9-2.6.2-6 .5-6-.4 0-.5.6-.8 1.3-1 .1.2.3.4.6.5 3.4 1 7.4-1.6 9.5-1-2.7-.9-4.4.7-7 .2 1.5 0 3.1-.3 3.2-.7-1.3.8-5.2-.7-6.2.6-1.1.3-2 .8-2 1.6 0 2.5 8.8.3 8.8 1.3 0 .6-1.7 1.2-4 1.2-1.8 0-4.8-1.2-8.6-.2v-.1c.3-.7 1.1-1.6.7-2.1.3-.1.5-.4.5-.7-.2-.2-.4-.2-.6-.3.1-.2 0-.3-.2-.4 0 0-.1-.4-.2-.5-.1-.1-.4-.3-.7-.5-.4-.2-.6-.2-.8-.2-.1 0-.4.1-.5.1-.2 0-.4 0-.4.2-.1-.2-.3-.2-.6-.3-.1.3-.2.5-.1.9-.3 0-.6.8-.9.7.1.2.2.3.3.3-.2.5-.3 1-.7 1 .1.2.2.3.3.3-.2.7-.2 1.6-.2 2.2-.5-.6-1.4-1.9-1.9-2.2-.5-.3-.5-.5-.5-1 0-.8.4-1 0-1.7-.1-.3-.4-.5-.7-.5.1.1.2.2.3.5-.2.2-.4.5-.2.7v.3c0 .1 0 0-.1 0-.1-.3-.3-.8-.5-.8h-.2c0-.3-.4-.6-.7-.2.1 0 .2 0 .3.1-.2.5 0 .8.5.8.1 0 .1.1.2.2 0 .1 0 .1-.1 0-.6-.2-.8 0-.8.3v.2c-.2.2-.2.4.1.7 0-.1 0-.3.1-.4 0 0 .1 0 .1-.1.4.4.5-.2.8.2v.1c-.4.4-.3.8.2.9.1 0 .1.1.1.1-.1.7-1 .6-1-.1-.5.8.4 1.5 1.1 1h.1c.1.1.1.2.2.2 0 0 0-.2.2-.2.1 0 .1 0 .1.1 0 .2.1.4.3.5 0-.1 0-.3.1-.3s0 1.1 1 1.7c.2.6.7.9 1.2.9l.4.8c-2.7 0-.8-.1-2.6.4 0 0-.7.3-1.1-.1-.1-.2-.1-.3-.2-.6-.1-.2-.3-.3-.4-.3h-.3c-.2-.2-.6-.2-.8-.1.1 0 .3 0 .4.3 0 .1-.1.2-.1.2-.1.2 0 .4.7.7 0 0 .1.1 0 .1-.6.3-.6-.7-1.1-.4 0 0-.1.1-.2.1-.4-.1-.9.3-.7.8 0-.1.2-.3.4-.4.1.7.3.9 1.1.4.1-.1.1 0 .1 0-.4.7-.7.5-.1 1.1-.2.2.2.8.6.8-.1-.1-.3-.3-.2-.7.1 0 .2.1.2.1.4-.2.2-.6.4-.7.1 0 .1 0 .1.1.1.9 1.2.6 1.2-.1 0 0 0-.1 0 0 .2.1.3.2.2.5.1 0 .2-.2.3-.3.1.2.1.5-.2.8.2 0 .6-.3.7-.8.1.1.1.2.2.2.4 0 .4.1.9-.1.1 0 .1 0 .1.1v.5c0-.1.1-.2.2-.2s0 .4.2.7c.1-1.1.7-.7 1.4-1.1.1-.1.1 0 .1 0 .1-.6.1-.4-.1-.3zm1.1-9c.1.1.7.3 1 .4-.4.1-.3.3-.6.3s-.5-.4-.4-.7zm-.6-.3c-.1.2-.4.4-.6.2-.2-.2 0-.3-.2-.7.2.1.7.4.8.5zm-.8 2.7c-.3-.2-.2-.5-.2-.7.1-.2.2-.3.3-.3.2 0 .3 0 .3-.2.1-.2-.1-.3-.3-.4.2-.1.3-.1.2-.2-.1-.1-.3.1-.3 0s.1-.2.2-.2c.1-.1.2-.1.3 0l.8.4c.1.1.2.1.2.2v.3c-.1 0-.1-.2-.2-.3-.1 0-.1.1 0 .3-.2-.1-.4-.1-.5 0-.1.2-.1.3.1.4-.1.2-.4.9-.9.7zM50.1 242.9c4.1-.8 5.3 1.1 9.7 1.1 2.7 0 3.4-3.6 5.6-3.6 2.1 0 2.1 1.7 1.4 2.9 3.4-.9 4.1-2.8 4.1-4.8s-1.6-3.2-.4-3.9c1.2-.8 5.2.1 3.6 3.4 2.1-.4 3.2-1.9 3.2-4.4 0-2.5-2.9-4-5.6-3.6-.5-1.6-2.8-2.5-4.9-2.5-4.8 0-4.1 3.9-7.4 3.9-5.3 0-10.4-7-10.4-18.8 0-6.3 6.7-7.9 11.4-10 4.7-2.1 13-7.3 18-15.7 3.9-6.6 4-13.9 3.5-22.5 6.7 3.9 7.4 9.5 7.4 13.5 0 5.3-2.7 7.4-4.8 8.4-1.8.8-2.4.5-2.6 1.6-.2 1.3.7 2.1 1.4 2.5 2.4 1.3 1.9 3.6 2.6 6.1.7 2.5 2.9 6.5 6.6 9.5.4-1.6.3-4.1.1-7.4 5.1 2.6 1 13 11 13-1.8-1.1-1.3-3.8-.3-4.2 1.1-.4 2.4.7 4.3 3.4s1.4 2.5 6.1 2.5c4.7 0 2.6-1.7 5.1-1.7 2.5 0 2.3 2.9 1 5.1 4.2-1.3 5.5-4.5 4-7.8 3.7-2 5.7.8 6.2 2.9 3.7-3.7 0-8.2-2.9-8.5.1-1.4-1.2-2.8-2.7-2.9-1.5-.1-3-.2-4.7-.1-1.7.1-2.7 2.6-4.7 2.6-6.2 0-18.6-11.5-18.6-16.4 0-5 11.8-8 11.8-15.7 0-10.1-9.7-13.5-17.9-20 2.9-3.3 11.5-4.1 16.3-1.7.6-2.8 2.3-2.1 3-6.9 1.7 4.2-.6 7.7 1.2 9.5 1.4-2 4.9-1.7 4.7-7 1.1 3.3-1.4 8.3 1.1 10.5.4-2.7 2-3.2 3-3.2s1.9.7 1.9 2.3c0 4-4.8 2.9-4.8 7.5 0 1.9 2.4 2.6 2.4 3.8 0 1.2-2 3.1-4.3 1.5.8 1.7 2.3 3.3 4.4 3.3 2.2 0 4.5-1.8 5.4-4 1.1 2.9.3 6.1-1.8 6.5 2.1 1.1 7.3.1 6.7-6.6 2.9.5 4.4 2.5 2.7 6 2.4-.6 4.5-1.8 4.5-4.3 0-2-1.9-3.3-1.6-6 .3-2.2-2.7-4.3-3.2-7.3-1.3-9.6.9-4.6-21.3-30.1.9-.1 1.9.1 4.1 2.2 1.3 1.3 4.6 4.6 7 6.9 3.7-9.7 9.2-18 15.6-24.3-2.4.6-4.9 1.6-7.1 3.1-.1-3.4-.9-6.7-3.2-8.9.9-4.8.1-10.6-10.5-17.8 5.4 1.3 8.7 6.3 12.8 2.5-3.7-.1-3.8-8.4-17.3-15.2 5.1-.1 9.2 8.3 15.1 3.5-5.6-.7-7.5-10.8-17.6-13.9 3.5.4 7.1 2.1 10.1-2-3.5.8-5.6-2.5-9.4-2.8 1.4-4.4 1.1-7.2-.4-10.5-2.6.2-5.3 1-7.3 2.6-.3-2.4-2.8-2.6-5-2.4.1 1.1.6 2.6-.5 2.8-7.1 1.4-16.5 4.9-23.9 10.1-.9.7-1.7-.9-2.3-1.6-1.7 1.4-3.2 3.2-2.1 5.1-2.6.2-5.4.9-7.8 2.9 0 3.1 2.5 6 6.2 7.7-6.2 6.3-.6 12.1-6.1 17.6 7.7.3 6.4-10.6 10.3-12.1-.4 7.7-4.6 9-4.6 17.3 0 4.4 2.6 9.2.3 12.1 6.5-1.8 4.8-16.3 8.8-20.7.7 2.5.3 4.9-.5 7.4-2.3 6.8.2 16-3.3 19 5.8-.6 7.1-8.9 11-13.6-4.1 11-8.6 30-14.6 38.9-11.2 15.4-17.9 34.2-28.2 34.2-4.5 0-8-2.8-8-8.7 0-17.5 29.6-29.6 29.6-48.2 0-8.3-6.7-11.5-10.8-11.5-2.8 0-6.2 1.4-9.1 3.8-1.2-.5-2.4-.8-3.5-.8-10.5 0-7.7 19.1-16.8 18.9 3.6 2.1 9.8-1.9 13.5-7.3-1.5 12.4-19.1 9.1-17.7 23.9 2.5-11.6 30.4-9.9 30.4-27.6 0-2-1-3.7-2.4-5 2.1-1.4 4.1-1.9 5.9-1.9 3.4 0 6.4 2.5 6.4 7.5 0 15.6-29.4 28.8-29.4 48 0 3.2.9 6 2.5 8.1-2.1.9-4.2.5-6-1.6-.2 4.9 6.8 8.1 11.2 5.6 1 .3 2 .5 3.1.6-1.3 3.7-5.8 4.8-8.2 4.6 7.2 5.8 19.8-1.8 19.1-8.3 5.7-4.7 9.3-12.7 13.5-18-.2 1.2-.5 2.4-.7 3.6-4.2 7.8-8.2 14.8-9.3 25-.9 8.6-5.2 16.3-11.1 16.3-1.3 0-3.4-1.7-4.5-.9-1.8 1.6-.1 3.3-.1 4.9 0 2.4-4.6 4.9-4.6 12.4 0 3.4 1.9 7.5 1.2 9.7 1.9-1 4.4-4.2 5.5-8.4 2 9.9-4.2 9.5.3 18.4.6-2.9 3.4-4.2 5.2-2.9 1.8 1.2.9 2.1-.4 3.4-1.3 1.3-2.5 7.9 3.4 7.5-1.2-.5-1.3-2.3 1.7-2.9zM102.7 56c-2.7 4.2-.9 6-3 7.7-2.7 2.1-6.3.2-7.9-2.6 3.7-1.5 8-3.2 10.9-5.1zm-4 13.3c.6.7 2.2 1.5 1.7 2.5-.5 1-2.6-1.2-4.1 0-1.2 1-.2 1.9 2.1 2.6-2.2 1.3-4.5 2.1-3.7 4.4.6 2 1.7 2.5 3.9 2.5 1.7 0 6.7 8.2.5 10.9-5.7 2.5-8.8-6.8-7.3-8.3 1.5-1.5 2-2.7 1.1-4.5-1-2.2-3.3-1.1-5.7-.5 1.1-2.1 1.2-3.5-.3-3.3-1.9 0-1.9 3.1-2.9 2.7-1-.4-.5-2.1-.5-3 0-1.3.8-1.7 2.1-2.3 11.6-4.5 11.9-5 13.1-3.7zM80 71.6c-2.7.2-2.6-2.4-7.4-3.6 3.3-.7 7.6-2.4 11.4-3.8.6 3.2-.6 7.1-4 7.4zM62.2 47.7c0 2.6 3.8 2.6 3.8 0s-3.8-2.7-3.8 0zM65.3 42.5c0-2.6-3.8-2.6-3.8 0s3.8 2.5 3.8 0zM66.4 40.1c2.6 0 2.5-3.9 0-3.9s-2.5 3.9 0 3.9zM71.6 39.8c2.6 0 2.6-3.9 0-3.9s-2.6 3.9 0 3.9zM93.5 36.2c1.8 1.8 4.5-.9 2.7-2.8-1.9-1.8-4.5 1-2.7 2.8zM93 32c.8-.7.8-2 0-2.8-1.8-1.8-4.5.9-2.7 2.8.8.8 2 .8 2.7 0zM87.9 31.2c1.8-1.8-.9-4.6-2.7-2.8-1.8 1.8.9 4.6 2.7 2.8zM83.6 34.5c1.8-1.8-.9-4.6-2.7-2.8-1.9 1.8.8 4.6 2.7 2.8zM71.3 31.8l1.6 3.4 2-2.4c.1 0 .2.1.2.1.2 1.2.2 3.1.2 4.3 0 3.3 4.9 3.3 4.9 0 0-2-1.5-1.8-4-4.8 0-.1.1-.2.1-.3l3.3.3-1.3-3.5-2.5 2.1s-.1 0-.1-.1l-.2-3.6-3.4 1.3 2.2 2.7c-.1.1-.1.2-.1.3l-2.9.2z"/><path class="st1" d="M88.5 42.2c-1.8-.9-3.4.6-1.8 2.6.3-1.8 1.8-1.4 2.2 0 .3 1.2-.8 2.7-2.7 3.3-2.8.8-3.7-1-4.3-2.5.6-.4 2-.2 3.6.8L84.1 42c-.6 1.6-1.5 2.2-2.6 2.7-.1-1.3.9-3.9.9-3.9L77 43s2.4 1.2 3.3 2.2c-1.1.4-2.2.6-3.8-.1l2.1 4.2c.4-1.9 1.3-3 2.1-3.1.6 1.6 1.2 3.5-1.4 4.8-1.8.9-3.6.7-4.3-.4-.7-1.2.1-2.6 1.5-1.6-.2-2.6-2.4-2.5-3.1-.6 0-2.6-.7-4.2-3.4-5-.7 2.7.2 4.2 2.8 5.3-1.5-.2-3.1 1.3-1 3.2 0-1.7 1.4-1.9 2.1-.7 1.2 1.8-1.2 5.1-5.3 1.2.7-.3 1.3-.2 2.3.1L68.1 49c.2 1.3.1 2.2-.2 2.7-.6-.7-.8-1.3-1.1-2.7l-2.2 2c2.1 1.3 4.4 3.3 7.3 7.3 7-4.4 17.6-8.5 24.3-10-.7-4.9-.4-8 .2-10.3l-2.9.1c.8 1.2 1 1.7 1.1 2.7-.6-.2-1.2-.8-2-1.9l.4 4.6c.5-.8 1-1.4 1.6-1.7-.3 5.7-4.3 5-4.6 2.9-.2-1.3.9-2.1 2-1 .2-2.7-2-2.7-2.9-1.5 1.1-2.6.7-4.4-1.6-5.8-1.4 2.3-.8 3.9 1 5.8zM331.8 201.6c-4.6 0-8.3 3.8-8.3 8.4 0 4.7 3.7 8.4 8.3 8.4 4.6 0 8.3-3.8 8.3-8.4 0-4.7-3.7-8.4-8.3-8.4zm0 14.7c-3.4 0-6.2-2.8-6.2-6.3s2.8-6.3 6.2-6.3c3.4 0 6.2 2.8 6.2 6.3s-2.8 6.3-6.2 6.3zM300.5 226.7c1.4-.8 2.4-2 2.6-3.5.9-4.9-6.2-8.6-10.7-5.5-6 4.3 1.6 12.6 8.1 9zm-8-5.4c.7-4 8.6-3 8.6 1.2v.4c-.3 1.8-2.5 2.9-4.9 2.4-2.4-.5-4-2.3-3.7-4zM255.2 102.9c.2-1.2-.2-2.4-.8-3.4-1.6-2.1-5-2.3-7.7-.2-2.6 2.1-3.4 5.5-1.7 7.7 2.8 3.6 9.6.9 10.2-4.1zm-2.5-2c1 1.2.3 3.3-1.3 4.6-2.2 1.7-5.1 1.2-5.1-1.2-.1-3.4 4.7-5.6 6.4-3.4zM282.7 203.8c-1.2 1.2-2 3.1-2 5v.2c0 1.9.7 3.7 1.8 5 3.3 3.6 8.8.7 8.8-4.9.2-5.7-5.1-8.8-8.6-5.3zm5.1 8.7c-.4.4-1.1.8-1.9.8-3-.1-4.4-5.4-1.7-8 2-2.1 5.1-.1 5 3.7 0 1.4-.5 2.7-1.4 3.5zM247.4 136c-1.8-.9-3.7-1-5.4-.4-1.3.4-2.3 1.3-2.8 2.5-2.2 4.6 3.8 10 8.9 8.2 4.6-1.8 4.3-7.9-.7-10.3zm1.6 6.8c-.8 1.6-3.2 2.1-5.3 1-3.3-1.6-3.7-5.3-1-6.2 3.3-1.3 7.6 2.4 6.3 5.2z"/><path class="st1" d="M329.4 126.8c2.7 7.5 8.1 10.3 12.2 8.3-9.2-1.1-1.7-17-13.5-17-.7 0-1.3 0-1.9.2-2-2.1-4.3-3-7.7-3-5 0-13.6 4.9-13.6 15 0 21.8 24.9 23.7 24.9 43 0 5.6-4.2 9.1-8.9 9.1-4.2 0-7.6-4.8-11.1-12.2-1.7-3.6-5.3-8.4-9.1-13.5 4 2.9 8.6.8 8.6-3.6 0-5.5-6.8-9.5-10.4-6-.9.8-1.4 2.1-1.5 3.4-.1.4 0 1.4.4 2.4-5.4-7.1-10.3-14.1-10.3-17.9 0-3.4 2.3-6.3 5.1-9.9.1.1 1 .6 1 .6l.8-.8c1-1.1 3.1-3.4 7.4-8.1l.2-.3 1-1.1-2.7-2.2c.7-1.7 1.3-3.4 1.8-5.4.8 3.5 2.6 5.7 5 5-1.6-3.6 1.7-8.4-.5-17.3 2 3.4 5 5.2 7.1 4.6-5.5-5 1.6-11.9-5.5-22.6 2.4.8 3.9.3 4.9-.8-6.6-.9-3.6-9.4-15.1-12.5 2.9-.5 4.5-2.2 4.1-3.8-3 2.2-5.7-4.1-15.7-4-.6-3.8-4.1-7.8-8-9.7.7 2.9.1 5.6-.7 7.8l-32.5-32.4c-1-.9-1.5-1.1-1.7-.8-.3.3-.2.9.4 1.6l27.9 35.5c-2.1.7-4.1 1.6-6.3 2.4-1.4.5-2.4 1.9-2.4 3.7-5.2 2.6-9.7 5.8-12 7.9-1.7 1.6-3.1 2-1.6 5.5.6 1.3-1.2 4.7 2.8 2.3 2.7-1.6 8.7-5 9.6-2.9.5 1.1-2.5 2.5-4.5 3.3-2 .8-4.2 2.4-3.9 3.2.3.8 1.9-.1 2.1.8.1 1 .8 1.8 1.6 1.8s1.9-1.7 2.5-1.2c.6.6-.3 4.4-1 5.4 3.2-.4 5.2-3.4 5.3-5.8.1-2.4.7-3 1.2-3.3.5-.3 1.1 2.6.4 4.3 1.7-.4 3.4-2.6 3.2-6.7.9-.7 1.7-1.2 2.3-1.2 1.1 0 3.2 3 6.2 3 5.5 0 8.6-4.5 8.9-6.7.3-1.7.1-3.4-.8-4.7 2 1.6 2.6 4.2 2.6 6 0 7.9-13.8 11.7-19.5 17.2l-.6.6-6.5-2.6c-.9 2.8-2.5 8.2-3.8 12.4l-.3 1.1.6.3c-3.9 5.2-7 11-7.7 17-6.1-6.4-4.6-2.8-4.4-6.2.3-5.6-5.3-8.2-8.2-4.4-.2-.2-.5-.4-.7-.5-2.1-1.7-4.8-3.7-6.4-5.5-.7-.8-1.4-1.2-2.8-1.2-5.1 0-1.6-1.1-10.2 5.4 1.1 1.2 2.6 2.7 3.7 4 2.4-1.9 2.7-2.4 4.5-2.4.8 0 2 .6 2.8 1.9.6.9 5.9 7.9 10.2 12.8-.5.2-1 .3-1.4.5-1.9.8-6.1.6-7.9.5-1.9-.1-2.2-.6-3.5 1.4-1.9 3.1-3.3 3.3-1.5 6.4 1.9 3.3 6.7 12 8.3 15.9 1.6 3.9 3.4 4.5 6.5 5.8 3.1 1.3 8.2 4.3 8.8 5l.2-3c-.9-.9-3.8-2-4.9-2.4-1.1-.4-1.4-.9-.1-.9 1.3 0 4.9 1.3 7.5 2.4-.8-2.9-3.5-6.2-5.2-8-2.2-.6-4.4-.6-5.3.1.1.6-.4 1.4-1.2 1.4-.8 0-1.4-.7-1.2-1.5.3-.9 1.6-1.2 1.3-2.8-.3-1.7-2.3-2-3.6-2.1-1.8-2.7-4-6.7-4.9-8.3-1-1.6-.4-2.5.3-3.1 1.6-1.3 4.9.7 11.5 1.1 2.3.1 5.2.3 8.2.4.9 7.8 4 15.2 14.6 17.9 5.2 1.3 10.6 5.2 12.4 10.3-21.3-.4-24.7 8-24.7 16 0 9.1 7.5 8.6 7.5 15.3 0 5.9-17.9 8.3-23.3 9.2-7.6 1.1-7.9 2.2-17.9 12.4 0 0 1.7.4 3.4.3l3.1-4c.9-1.3 1.5-2.4 2.1-2.3.6.1.2 1.1-.5 2.6l-2.5 4.3c10.5.7 11.2-3.2 11.2-4.9 0-1.6-2.6-2.7-1.1-3.8 1.5-1 2.8-.3 4 1.1 1.2 1.4 1.6 2.6 4.5 1.6 0 0 22.9-9.7 25.8-11 2.6-1.2 1.9-2.3.3-3.7-1.7-1.4-2-3.8-2-6.2 0-7 4.2-9.2 11.6-9.1-.1 1.2-.2 2.4-.2 3.4 0 11 16.4 21.8 20.8 21.8 2 0 4.6-1.5 4.8 5.1.1 4.9 1.1 8.3.2 13.9-.9 5.6-2.5 6.5-5.8 8.9-3.3 2.4-6.5 9.8-7.9 11.4 4.6 3.1 4.1-6.3 7.8-8.4-1.3 3.3-2.3 8.2-2.9 9.6 4.2.7 11-3.1 11-6.1 0-3-2.3-2.7-2.3-4.7 0-.9 1.1-1.9 2.3-1.9 1.7 0 3 1.4 3.1 2 3.6-1.9 3.1-6.6 2.8-12.6.6 1.5 2.1 2.7 4.2 2.9 1.5.1 3.2-.3 4.6-1.2 4.6-3.1 4.2-9.2-.6-10.2-1.7-.4-3.6.1-5.3 1.2-1.5 1-2.6 2.5-3 4.1-.3-6-.8-11.6-.6-13.9.2-3.4.4-4.9-.7-5.4s-2.3 1.4-3.9 1.4-6.4-4.5-6.4-9.2c0-4.8 5.1-10.9 4.8-17.4-.1-2 1.2-3.1 2-1.2 1 2.2 2.4 5.3 4.6 7.7-1.3 8.2 7.5 16.2 14.8 10.2-3.6.6-6.1-2.7-7.7-5.9.6.1 1.3.2 1.9.2h1.1c2.6 3.2 10.7 3 12.8-5-1.4 1.7-4.4 2.9-6.4 2.7 3.1-2.4 4.6-6.4 4.6-10.6 0-20.8-24.8-23.2-24.8-42.1 0-7 6-11.5 10.2-11.5 1.6 0 2.8.5 3.8 1.2-1.6 1.6-2.5 4.2-2.3 7.2.7 14.9 24.7 14.1 25 21.3 2.4-11-15.5-7.7-16.1-22.3zm-63.9-57.2c1.2-2.2 0-5.7 4-5.7 2 0 3.8 2 6.2 2.8-3.9.4-7.4 1.3-10.2 2.9zM240.7 119c-1.6-.1-2.6-2.3-2.5-3.9.1-1.2.5-2.3 1.3-3 1.9-1.7 4.2.3 4.1 3.3-.1 2-1.5 3.6-2.9 3.6zm73.8 101.1c.7-3.6 6-5.3 7.6-2.8 1 1.6 0 3.9-1.9 5.1-3.1 2.1-6.3.5-5.7-2.3zm-8.8-70.4c1.6 1.7 2 4.2.7 5.4-2.2 2.1-6.9-.8-6.8-4.5 0-3 3.6-3.6 6.1-.9zm-47.2-46l.1-.2c1.3-4 3.2-10.3 3.4-11.2l4.6 1.8-.6.2c-.8.3-2 1.1-3.2 2.3.8.2 2 .2 2.8-.4l.7-.5-2 5.1-.3-.5c-.3-.5-1.2-1.7-2.1-2-.1.4-.1.7-.1 1 0 1.9 1.3 2.7 2.6 3.4 2.2 1.2 3.6 1.3 4.1.4.1-.2.1-.4.1-.6 0-.3-.1-.7-.4-1-.4-.5-1.2-.8-2.2-.4l-.3.1v-.3c-.1-1.4.3-2.1.7-2.6.5-.5 1.1-.8 1.8-.8.8 0 1.5.5 1.9 1.2.3-2.8 1.8-4.9 4.4-5.7l.2-.1.1.2c1 2.8.5 4.9-1.6 7.2 2.2-.4 3.3 1.1 2.9 2.8-.3 1.1-1.1 1.7-2 2.2l-.1-.3c-.6-3.4-6.5-.7-.6 2.6 2.6 1.5 4.2.2 5.2-1.2-.7-.1-1.9.1-3 .8l-.8.5 3.3-6.3c.1.9.3 2 1.4 3.1.8-2.7.2-3.8-.3-4.8l6.8 4-.8.1c-1.2.1-2.3.8-3.4 2.1 1.3.3 2.3 0 2.6-.1l.7-.2-3.7 6v-1.2c0-1.2-.4-2.2-.8-2.8-.3.6-.5 1.3-.5 2 0 1.1.5 2.3 2.1 3.2 5.6 3.5 5.2-3 1.9-1.9l-.3.1v-.3c-.1-1.3.4-2.1.8-2.5.5-.5 1.2-.7 1.8-.7 1 .1 1.6.9 2 1.9 1.1-3.5 2.9-4.4 5.6-5l.1.2c.1.5.2 1 .2 1.5 0 2.1-1 3.9-2.8 5.2.9 0 1.6.4 2 1.1.2.4.3.8.3 1.2 0 .2 0 .5-.1.7-.2.6-.6 1.3-1.8 1.9l-.3.1v-.3c-.1-1.1-.8-1.6-1.4-1.7-.6-.1-1.2.1-1.5.6-.5.9.3 2 2.4 3.4 1.4.9 3 1.7 5 0-.7-.6-2.1-.8-2.8-.8h-.5l3.4-4.3c-.1.9-.3 2.2 1 3.5.6-2.7.4-3.7.2-4.6l3.9 3.2-.2.2c-.1 0-5.1 5.6-7.6 8.4l-.1.2-34.9-20.4zm34 86c-1.3 2-3.7 2.6-5.2 1.6-1.5-1.1-1.6-3.5-.3-5.5 1.3-1.9 3.7-2.7 5.2-1.6 1.5 1 1.6 3.5.3 5.5zm9.8-15.7c-1.4 1.9-3.7 2.6-5.2 1.5s-1.6-3.5-.3-5.5c1.4-1.9 3.7-2.6 5.2-1.6 1.5 1.2 1.6 3.6.3 5.6zM187.1 250.2c.9 0 1.4 1.2 2.2 2.9 5.5-6.3 2.1-12.4-2.9-12.4-.6 0-1.2.1-1.7.2v-10c-4.4-.2-9.6-1-14.8-2.4V241c-.5-.2-1.1-.3-1.8-.3-5 0-8.4 6.1-2.9 12.4.7-1.6 1.3-2.9 2.1-2.9 1.8 0 1 8.9 6.1 9.1-.2.4-.2.9-.2 1.4 0 2.2 1.8 4.1 4 4.1 2.6 0 4.8-2.6 3.8-5.5 5.2-.2 4.3-9.1 6.1-9.1zm-9.8 12.8c-3 0-3-4.6 0-4.6 3 .1 2.9 4.6 0 4.6zm3.5-5.5c-1.8 0-2.7-1.2-2.7-2.5s.9-1.7.9-2.7c0-1.9-3.4-1.9-3.4 0 0 1 .9 1.4.9 2.7 0 1.3-1 2.5-2.8 2.5-4.1 0-2.8-9.2-6.2-9.2-.8 0-1.7.7-2.3 1.8-.7-1.3-1.1-2.6-1.1-3.6 0-1.7 1.3-4 4-4 4.6 0 3.5 6.4 5.7 6.4 1 0 1.7-.6 1.7-1.6 0-1.8-3.2-3.5-3.2-6.1 0-2.6 2.3-4.8 4.9-6.9 9.9 8.1 1.7 9.8 1.7 13 0 1 .7 1.6 1.7 1.6 2.2 0 1.1-6.4 5.7-6.4 2.7 0 4 2.3 4 4 0 1-.4 2.3-1.1 3.6-.6-1.2-1.5-1.8-2.2-1.8-3.4 0-2.1 9.2-6.2 9.2zM154.7 66.2c.2 2.3 2.6 4 3.7 6.3 1-2.7 2.7-4.7 2.5-6.9-.2-2.1-3.1-4.9-3.6-6.5-1.4 3-2.8 4.8-2.6 7.1zM193.5 65.6c-.2 2.1 1.5 4.2 2.5 6.9 1.2-2.3 3.5-4 3.7-6.3.2-2.3-1.1-4.1-2.7-7.1-.5 1.6-3.3 4.4-3.5 6.5zM134.6 57.4c3.6 0 3.5-5.4 0-5.4s-3.6 5.4 0 5.4zM136.4 61.3c0-3.6-5.4-3.6-5.4 0s5.4 3.6 5.4 0zM132.3 67.9c0 1.5 1.2 2.7 2.7 2.7 1.5 0 2.7-1.2 2.7-2.7 0-3.6-5.4-3.6-5.4 0zM149.4 44.4c1.5 0 2.7-1.2 2.7-2.7 0-3.6-5.4-3.6-5.4 0 0 1.5 1.2 2.7 2.7 2.7zM142.8 46.5c3.5 0 3.5-5.4 0-5.4-3.6 0-3.6 5.4 0 5.4zM137.5 51.2c1.5 0 2.7-1.2 2.7-2.7 0-3.6-5.4-3.6-5.4 0 0 1.5 1.2 2.7 2.7 2.7zM156.4 45.1c1.5 0 2.7-1.2 2.7-2.7 0-3.6-5.4-3.6-5.4 0 0 1.5 1.2 2.7 2.7 2.7zM163.1 47c3.5 0 3.6-5.4 0-5.4s-3.6 5.4 0 5.4zM169.3 50c3.5 0 3.6-5.4 0-5.4-3.5 0-3.5 5.4 0 5.4zM217.1 54.7c0 3.6 5.4 3.6 5.4 0s-5.4-3.6-5.4 0zM220.7 64c1.5 0 2.7-1.2 2.7-2.7 0-1.5-1.2-2.7-2.7-2.7-3.5 0-3.5 5.4 0 5.4zM219.4 70.6c1.5 0 2.7-1.2 2.7-2.7 0-1.5-1.2-2.7-2.7-2.7-3.5 0-3.6 5.4 0 5.4zM205 44.4c3.6 0 3.6-5.4 0-5.4-1.5 0-2.7 1.2-2.7 2.7 0 1.5 1.2 2.7 2.7 2.7zM211.6 46.5c1.5 0 2.7-1.2 2.7-2.7 0-1.5-1.2-2.7-2.7-2.7-3.5 0-3.5 5.4 0 5.4zM216.9 51.2c3.5 0 3.5-5.4 0-5.4-3.6-.1-3.6 5.4 0 5.4zM198 45.1c1.5 0 2.7-1.2 2.7-2.7 0-3.6-5.4-3.6-5.4 0 0 1.5 1.2 2.7 2.7 2.7zM191.3 47c1.5 0 2.7-1.2 2.7-2.7 0-3.6-5.4-3.6-5.4 0 .1 1.5 1.3 2.7 2.7 2.7zM182.4 47.3c0 3.6 5.4 3.6 5.4 0s-5.4-3.6-5.4 0zM175.6 62V50.4c-1.1-.2-2.1-.5-3-.9V62h3zM181.8 62V49.4c-.9.4-2 .8-3 .9V62h3zM175.5 29.7c-3.4.7-6 3.4-6.6 6.9h6.6v-6.9zM178.9 29.7v6.9h6.6c-.6-3.5-3.2-6.2-6.6-6.9z"/><path class="st1" d="M185.4 39.9H169c1.9 8.8 14.4 8.9 16.4 0zM176.2 22.5c-.3 2.3-1.7 4.5-3.6 6h9.2c-1.9-1.5-3.4-3.7-3.7-6 2.2.4 4.6 2 6.1 3.9V17c-1.5 1.9-3.9 3.5-6.1 3.9.2-2.3 1.6-4.3 3.5-6.7h-8.9c1.9 2.4 3.2 4.5 3.5 6.7-2.2-.4-4.7-2-6.1-3.9v9.4c1.5-1.9 3.9-3.5 6.1-3.9zM207.3 217.3c-4.2.6-10.5-.6-15.6-1.9-8.4-2.1-18.5-5.8-27.9-10.1.4-4.9-3.5-8.5-7.2-8.5-.9 0-1.7.2-2.6.5-1.3-1.2-2.6-2.6-3.9-4-5.8-6.8-9.3-15.4-10.7-24.3-.4 2.8-3.7 6-9 6.1.1-.6-.1-1.4-.5-1.6-1.4 1.6-3.2 3.1-8 1.4 2.8 14.3 9.8 27.5 20.6 37.2 0 .4-.1.7-.1 1.1 0 2 1.9 5.2 4.7 6.5 2.2 1.1 4.7.8 6.9-.8 8.8 4.7 22.5 8.6 32.1 8.6 7.1 0 16.3-5.6 20.5-9.7.3-.1.5-.3.7-.5zm-79.4-32.2c-.7-1.8-.7-3.6 0-5.2 2.7-6.2 12.2-4.4 12.2 3.1 0 7-9.5 9.2-12.2 2.1zm10.1 18l-2.1-3s3.3-2.3 3.6-2.6c-.2-.3-1.8-2.6-2-2.9-.4.3-3.6 2.6-3.6 2.6l-2.1-3 10.1-7.2 2.1 3s-3.2 2.3-3.6 2.6c.2.3 1.8 2.6 2 2.9.4-.3 3.6-2.6 3.6-2.6l2.1 3-10.1 7.2zm22.8-.6c-3.7-2.8-4.5-1.9-8.2 2.5 4.2 3.4 2.4 6.9-2.7 3.8-2.1 3.3-3.6 5.6-.5 7.4l.4.2c.8.5 1.9 1.2 2.7 1.6-1.5.9-3.1 1-4.6.2-2.3-1.1-3.8-3.8-3.8-5.2 0-2.6 1.4-5.5 2.8-7.6-.6-.9-1.1-1.9-1.4-2.8 1.3.2 2.1.4 3 .6 2.1-2.2 5.1-5.1 8.2-5.1 1.5 0 3 .8 4.2 2.1.8 1 1.4 2.1 1.5 3.3-.6-.2-1.1-.6-1.6-1zm5.4 16.3c-4.7 0-4.7-7.3 0-7.3 4.8 0 4.8 7.3 0 7.3zm15.8 5c-1.8 0-3.3-1.5-3.3-3.3s1.5-3.3 3.3-3.3c1.8 0 3.3 1.5 3.3 3.3s-1.4 3.3-3.3 3.3z"/><path class="st1" d="M136.6 183c0-2.1-1.8-3.8-3.9-3-3.5 1.4-1.4 6.8 2.1 5.5 1.1-.4 1.8-1.3 1.8-2.5zM138.4 128.5c-1.4-.7-2.8-.2-3.6 1.2-1.3 2.5 1.1 4.5 3.1 3.9 2.2-.7 2.6-4 .5-5.1zM212.1 121.8l-1.3.4.7.9zM226.9 144.9c-.4.4-.7 1-1.1 1.5.2.1.5.2.8.3.5.2 1 .3 1.5.5l-1.2-2.3zM227 163.2c.2 0 .5 0 .5-.6v-.7h-1c0 .7-.1 1.3.5 1.3zM164.8 104.4c-1.5-.7-3.4.2-3.9 1.4-.9 1.8.5 5 3.7 3.8 2.6-.9 2.3-4.2.2-5.2z"/><path class="st1" d="M142.1 77.2c-.4-2.1-.3-5.7 1.6-8.7l-7.6 3.3c3.6 4.1 7.9 13.4 10.2 21.1-1.5 1.3-2.3 3-2.3 5 0 3.6 2.3 5.7 4.5 7.2-4.2 2.8-8 6.1-11.5 10-5.2 5.9-9.3 12.8-12.1 20.5-.1.4-.3.8-.4 1.1.8.9 1.7 1.8 2.5 2.7.3-1.2 1.6-2.4 2.5-3.1l3.8 1.5c-1.6 1.1-3.5 2.7-3.1 3.1.2.2 1-.5 1.4-.8 1.2-.9 2.8-2.3 5.1-1.4 1 .4 1.7 1.1 2.1 2 1.1 2.4-.6 4.9-2.8 6.2l-3.5-1.4c.8-.5 3.8-3.1 3-3.5-.3-.2-1 .4-1.7 1s-1.6 1.2-2.6 1.5c5.3 7.6.5 7.2 5.4 13.5 2.7 3.5-.1 3.2 2.3 7.6-.1-1.2-.2-2.5-.2-3.7h37.8v41.8c-1.5 0-3.2.2-4.5 1.8 4.4 1.8 8.7 3.4 12.9 4.7.4-2.7 1.1-4.1 2.5-5.8 0 0-5.7-.6-8.7-.7v-41.8h36.9c-.1 5.8-1.1 11.4-3 16.7-3.7 10.5-10.6 19.3-20.5 24.4-1.1.5-1.9 2.3-2.6 3.9-.5 1.2-.9 2.4-1.2 4.1 1.7.5 2.1.9 3.7 1.3 13 3.3 16.3 2.6 17.1 2.1 2.9-2.3 5.6-4.9 8.1-7.8 5.2-5.9 9.3-12.9 12.1-20.6 2.9-8 4.4-16.5 4.4-25.2 0-1.6 0-3.2-.1-4.8-1.2-.9-2.6-2.2-3.5-4.2-1.9-.6-7.3-2.6-7.3-2.6l-5.1 1.4-.9-3.5 5.1-1.4s2.2-3 3.2-4.1c-1.3-2.4-2.5-4.5-3.3-5.9-.8-1.3-1.2-2.5-1.2-3.6l-4.6 2.5c.2.4 2 4.2 2 4.2l-3.1 1.5-3.6-7.5 11-5.5.5.9c.8-1.1 1.3-2 1.9-2.7-2.1-3.7-4.6-7.2-7.4-10.5-3.4-3.9-7.3-7.3-11.4-10 2.2-1.5 4.5-3.6 4.5-7.2 0-2.1-.8-3.8-2.3-5.1 2.4-7.7 6.6-16.9 10.2-21l-7.6-3.3c2 3.1 2.1 6.6 1.7 8.7-2-1.4-3.7-3.3-4.2-5.8-.4 2.3-1.6 6.1-2.8 8.4 2.2-1.1 4-1.5 6.2-.6-1.3 1.7-4.5 4.4-9.5 3.2-8-1.9-5.3-7.1-2.6-6.8 1.7.2 1.7 2.7 1.2 3.8 2.1-1.2 4.4-7.7 1-8.7-2.7-.7-5.1 3-6 5.8-.5-3.4-1.9-6.7-4.6-6.5-3.5.2-2.4 6.8-1.1 8.4.2-2.3 1.4-3.5 2.5-3.4.9.1 2.2.7 2 2.8-.5 4.6-15.1 5.7-15.9-3.9 2.1.4 5.3 2 6.7 4.1-.4-3.8-.5-6.5 0-10.5-1.7 2.5-4.6 3.8-6.7 4.1.6-2.7 2.9-5.5 5.5-7.2h-13.8c2.6 1.7 4.9 4.5 5.5 7.2-2-.3-4.8-1.6-6.5-4.1.4 3.9.4 6.6 0 10.5 1.4-2.1 4.6-3.7 6.6-4.1-.5 6.3-6.2 7.3-9.4 7.3-3.4 0-6.3-1.3-6.5-3.4-.4-3.6 4-4.2 4.4.6 1.2-1.7 2.4-8.2-1.1-8.4-2.7-.2-4.1 3.1-4.6 6.5-.9-2.9-3.3-6.6-6-5.8-3.4 1-1.1 7.4 1 8.7-.5-1.1-.4-3.7 1.2-3.8 2.7-.3 5.4 4.9-2.6 6.8-4.9 1.2-8.2-1.5-9.5-3.2 2.3-1 4-.5 6.3.6-1.1-2.2-2.4-6-2.8-8.4-.5 2.5-2.2 4.5-4.2 5.9zm5.9 31.3l2.3 2.5-2.5 2.3c.3.4 5.7 6.3 5.7 6.3l-2.6 2.4-5.7-6.3-2.4 2.3-2.3-2.5 7.5-7zm-9 8.9l9.3 7.4-2.2 2.8-9.3-7.4 2.2-2.8zm-.2 19.6c-5 1.6-9.7-3.8-7-8.9 2.9-5.5 9.8-4 11.2.8 1 3.1-.9 7.1-4.2 8.1zm37.8 22.6h-37.8c.3-17.5 9.1-34 23.5-41.3 4.5-2.3 9.3-3.5 14.2-3.6v44.9zm-4.8-49.4l-1.6 3.4c-2.6.7-5.6-.1-6.2-.2-7.2.9-10.3-9.5-2.6-12.4 4.5-1.7 8.6 1.8 8.6 5.9 0 1.2-.4 2.4-1 3.5.6-.1 1.7.1 2.8-.2zm5.5 1.9c-2.6.1-5.3-1.5-5.4-5v-7.5l3.6-.1v7.2c0 1 .2 1.2.3 1.3.4.4.8.5 1.4.5.7 0 1.3-.2 1.6-.6.5-.5.3-1.7.3-8.6h3.6c0 7.6.4 9.2-1.3 11-.9 1.2-2.3 1.8-4.1 1.8zm32.5 97.9l-2.5-2.5 3-3.1-.7-.6-2.9 3-2.5-2.5 2.9-3-.7-.7-3.2 3.1-2.5-2.5 5.7-5.7 8.8 8.8-5.4 5.7zm10-11.3c-.6.9-1.9 1.8-2.9 2.1l-3.4-2.4c3.6-1.2 3.8-2.2 3.6-2.4-.1-.2-.7.2-1.4.5-1.3.7-3.2 1.7-5.3.3-2.9-2.1-2.1-6.4 2.5-7.9l3.4 2.4c-2 .4-3.4 1.3-3.9 1.9-.1.2-.3.5-.1.6.3.2 1.2-.2 1.9-.5 1.4-.6 3.1-1.4 4.8-.3.9.6 1.4 1.4 1.6 2.4 0 .2.1.5.1.7-.1.8-.3 1.7-.9 2.6zm-1.1-40.6l12.3.2c-.1 4.5.2 6.1-1.3 7.6-2 1.9-6.7 1.5-6.7-3.4v-.6c-.4 0-4.4-.1-4.4-.1l.1-3.7zm-.3 9.4l12.1 2.2-1.4 7.9-3.4-.6.8-4.3-.9-.2-.7 4.2-3.4-.6.8-4.1-1-.2-.8 4.4-3.4-.6 1.3-8.1zm9.7 13.6l-1 2.6-7.7 2.7 5.7 2.3-1.3 3.3-11.4-4.7 1.1-2.6 7.6-2.6-5.6-2.3 1.3-3.3 11.3 4.6zm-15.4-38.3c1.9 5.3 2.9 11 3 16.9h-36.9v-44.8c10 .5 19 5.5 25.6 13.3 3.6 4.2 6.3 9.1 8.3 14.6zM184 112.5l2.5-12.6 3.5.7-2.4 12.6-3.6-.7zm32.1 4.6l1.5 1.9-6.5 12.8-2.4-3.3 1.2-2.3-2.4-3.1-2.1.7-2.9-2.8 13.6-3.9zm-8.5-8.2l2.2 1.7-7.4 10.2-3-2.1 3.8-5-3.7 1-.6-3.9-3.5 5.1-3.2-1.7 7.2-10.5 2.4 1.3.8 5.3 5-1.4zm-30.3-19c10.3 0 30.5.6 30.5 7.9 0 2-1.3 3.7-4.2 5.5-14.2-9.6-38.5-9.5-52.5 0-2.9-1.8-4.2-3.5-4.2-5.5-.1-7.3 20.1-7.9 30.4-7.9zM79.5 249.7s-.4.2-.7.4c.3.4 2.8 4.7 3.1 5.3 2.2-1.2 3.9-2.7 2.5-4.9-1.5-2.3-3.2-1.6-4.9-.8zM247.9 232l-1-.6s-.5 1-.8 1.4c.9.5 1.2.9 1.8.7.5-.2.8-.9 0-1.5zM233.9 225.6c-1.7 0 0-2-3.1 5.9l.8.2c2.4.6 4 .2 4.9-2.2.7-1.8.2-3.2-2.6-3.9zM256.9 239.4c-1.7.4-2.9 2.2-2.5 4 .2.8.8 1.5 1.6 2 2.9 1.7 5.7-1 5.1-3.5-.4-1.8-2.4-2.9-4.2-2.5zM188.9 276.5c0 4.5 7.1 4.2 7.1-.3 0-.9-.3-1.7-1-2.3-2-1.9-6.1-.8-6.1 2.6z"/><path class="st1" d="M230.1 219.2c-5.9 0-12.7 2.3-16 10.5-3.5 8.7-7.4 11.6-7.4 15.4 0 3.4 3 6 8.1 8.7 3.3 1.8 6.7 2.7 6.5 5.9-21.6 10-66.3 10-87.9 0-.2-3.2 3.2-4.1 6.5-5.9 14.8-7.9 5.6-11.9.6-24.1-3.3-8.2-10.1-10.5-16-10.5-20.9 0-51.6 38.3-73.8 31.7 8.8 4 15.1 13 22.1 13 18.3 0 39.3-28.1 59.3-27.5-4.6 5.7-10.9 6.9-10.9 12.7 0 4.1 3.5 6.5 5.9 12 1.5 3.4 1.8 5.8 3 10.6 1.1 4.2 4 15.1 47.2 15.1s46.1-10.8 47.2-15.1c1.3-4.8 1.6-7.2 3.1-10.6 2.4-5.4 5.9-7.9 5.9-12 0-5.8-6.4-7-10.9-12.7h.8c19.6 0 40.4 27.5 58.5 27.5 7 0 13.3-9 22.1-13-22.3 6.5-53-31.7-73.9-31.7zm-145.6 39l-4 2.2-6.8-11.7c4.5-2.5 6.1-3.5 8.1-3.5 6-.1 10.7 8.7 2.7 13zm10.4-6.3l-7.2-11.6 3.2-2.1 7.2 11.7-3.2 2zm7.5-5.1l-7.1-11.6 7.5-5 1.9 3.1-4.3 2.9c.2.3.4.7.7 1.1l4.2-2.8 1.9 3.1-4.2 2.8c.2.4.5.8.7 1.2l4.5-3 1.9 3.1-7.7 5.1zm15.5-8.8c-4 1.8-6.5 0-7.8-2.9l-3.2-7.4 3.4-1.8c3.7 8.5 3.8 9.9 6.2 8.8 2.5-1.2 1.7-1.4-2.3-10.8l3.8-1.3c3.2 7.8 6.5 12.4-.1 15.4zm5.5 11.5c0-5.4 8.4-8.5 11.7-12.7 4.9.9 11.5 3.2 11.5 7.6 0 5.2-16.5 7.3-15 14.4-5.2-2.8-8.2-6-8.2-9.3zm16.8 29.5l-.7-14.1c2.1.6 6.8 1.9 9.2 2.3l.1 3.8c-6.1-1.2-5.1-1.8-5.1.1.5.1 4.8 1.2 4.8 1.2l.1 3.9s-3.9-1-4.7-1.2c0 .1 0 1.1.1 1.5 1.3.4 3.3 1 5 1.3l.2 3.9c-3.4-.6-6.8-1.8-9-2.7zm21.5-6.1c-1.1-.1-3-.3-4-.5v10.7l-3.9-.6v-10.7c-1.1-.2-2.8-.4-4-.6v-3.8c3.4.6 8.1 1.3 11.9 1.7v3.8zm22 11.1l-3.9.1v-7.6c-1 1.1-3.3 4-3.3 4s-2.3-2.8-3.3-4v7.6l-3.9-.1v-14.3l3.3.1s3.4 4.1 3.9 4.8c.5-.7 3.8-4.8 3.8-4.8l3.3-.1V284zm14.2-2.5c-2.8 2.6-7.8 3.1-10.8.3-4.4-4.1-1.9-12.5 5.4-12.7 7.3-.3 10 7.9 5.4 12.4zm16.3-2.4l-2.9 1.1s-4.8-4.9-5.8-6c-.1 1.5-.4 7.6-.4 7.6l-3.9.8.9-14.7 2.8-.5 5.9 6.1c.1-1.5.4-7.5.4-7.5l3.9-1.1-.9 14.2zm16.9-29.6c0 3.3-3 6.5-8.2 9.3 1.5-7-15-9.2-15-14.4 0-4.5 6.6-6.8 11.5-7.6 3.3 4.2 11.7 7.3 11.7 12.7zm-.7-14.3l-4.6-1.1 4.6-13.2 5.2 1.3c3.3.9 6.3 3.9 4.5 8.4-2 5.2-5.8 5.5-9.7 4.6zm14.8 6.9l-.3-4c-.1-1.5-.2-2-.6-2.3-.3.6-2.5 4.3-2.5 4.3l-3.4-1.8 6.8-12c1 .6 3.6 2.1 4.6 2.7 4.8 3.1 1.9 7.9-1.2 7.8.1.4.8 8.1.8 8.1-.6-.5-3.9-2.6-4.2-2.8zm8.9 6.4c-5.9-3.4-3.9-11.5 1.8-12.8 3.8-.9 7.9 1.5 8.9 5.2 1.7 5.8-4.6 11.1-10.7 7.6zm8 5.1l7.2-11.8 3.3 2-7.1 11.9-3.4-2.1zm21 .3c-1-.4-2.8-1.3-4.1-2-1.2 1.9-4.5 7.2-5.1 8.2l-3.5-1.6c0-.1 3.9-6.3 5.2-8.4-1.1-.6-2.7-1.6-3.5-2.1l1.8-3.2c2.9 1.8 8.6 4.7 11 5.8l-1.8 3.3z"/></svg>
