<?xml version="1.0" encoding="UTF-8" standalone="no"?>
<svg width="75px" height="33px" viewBox="0 0 75 33" version="1.1" xmlns="http://www.w3.org/2000/svg" xmlns:xlink="http://www.w3.org/1999/xlink" xmlns:sketch="http://www.bohemiancoding.com/sketch/ns">
    <!-- Generator: Sketch 3.3.3 (12072) - http://www.bohemiancoding.com/sketch -->
    <title>devices</title>
    <desc>Created with Sketch.</desc>
    <defs></defs>
    <g id="Page-1" stroke="none" stroke-width="1" fill="none" fill-rule="evenodd" sketch:type="MSPage">
        <g id="Home" sketch:type="MSArtboardGroup" transform="translate(-486.000000, -428.000000)" fill="#000000">
            <g id="http://mysurvey.com/-+-Return-to-this-surve-+-Imported-Layers" sketch:type="MSLayerGroup" transform="translate(486.000000, 423.000000)">
                <g id="devices" transform="translate(0.000000, 5.000000)" sketch:type="MSShapeGroup">
                    <g id="Imported-Layers">
                        <path d="M0.5,31.168 C0.5,32.039 1.207,32.746 2.078,32.746 L31.625,32.746 C32.496,32.746 33.203,32.039 33.203,31.168 L33.203,29.676 L0.5,29.676 L0.5,31.168 Z" id="Fill-1"></path>
                        <path d="M29.566,12.301 C29.566,11.574 28.977,10.984 28.25,10.984 L5.457,10.984 C4.73,10.984 4.141,11.574 4.141,12.301 L4.141,28.383 L29.566,28.383 L29.566,12.301 Z M27.027,13.523 L27.027,25.84 L6.68,25.84 L6.68,13.523 L27.027,13.523 Z" id="Fill-2"></path>
                        <path d="M44.848,27.711 L44.73,27.18 L38.07,27.18 L37.953,27.711 C37.645,29.137 36.988,30.5 36.062,31.652 L35.18,32.746 L47.621,32.746 L46.738,31.652 C45.812,30.5 45.156,29.141 44.848,27.711 L44.848,27.711 Z" id="Fill-3"></path>
                        <path d="M73.07,20.738 L68.262,20.738 C67.629,20.738 67.113,21.254 67.113,21.887 L67.113,31.598 C67.113,32.23 67.629,32.746 68.262,32.746 L73.07,32.746 C73.703,32.746 74.219,32.23 74.219,31.598 L74.219,21.887 C74.219,21.254 73.703,20.738 73.07,20.738 L73.07,20.738 Z M69.703,21.477 L71.629,21.477 C71.77,21.477 71.879,21.59 71.879,21.73 C71.879,21.871 71.766,21.98 71.629,21.98 L69.703,21.98 C69.562,21.98 69.449,21.871 69.449,21.73 C69.449,21.59 69.562,21.477 69.703,21.477 L69.703,21.477 Z M70.664,32.066 C70.41,32.066 70.203,31.859 70.203,31.605 C70.203,31.352 70.41,31.145 70.664,31.145 C70.918,31.145 71.125,31.352 71.125,31.605 C71.125,31.859 70.922,32.066 70.664,32.066 L70.664,32.066 Z M73.23,30.484 L68.102,30.484 L68.102,22.691 L73.23,22.691 L73.23,30.484 Z" id="Fill-4"></path>
                        <path d="M64.203,11.832 L50.328,11.832 C49.602,11.832 49.012,12.422 49.012,13.148 L49.012,31.43 C49.012,32.156 49.602,32.746 50.328,32.746 L64.207,32.746 C64.934,32.746 65.523,32.156 65.523,31.43 L65.523,13.152 C65.52,12.426 64.93,11.832 64.203,11.832 L64.203,11.832 Z M57.266,32.023 C56.969,32.023 56.723,31.781 56.723,31.48 C56.723,31.184 56.965,30.938 57.266,30.938 C57.566,30.938 57.809,31.18 57.809,31.48 C57.805,31.781 57.562,32.023 57.266,32.023 L57.266,32.023 Z M62.98,30.207 L51.551,30.207 L51.551,14.375 L62.98,14.375 L62.98,30.207 Z" id="Fill-5"></path>
                        <path d="M25.59,2.668 L57.879,2.668 L57.879,10.539 L60.418,10.539 L60.418,1.445 C60.418,0.719 59.828,0.129 59.102,0.129 L24.363,0.129 C23.637,0.129 23.047,0.719 23.047,1.445 L23.047,9.688 L25.586,9.688 L25.586,2.668 L25.59,2.668 Z" id="Fill-6"></path>
                        <path d="M30.863,23.344 L47.715,23.344 L47.715,25.883 L30.863,25.883 L30.863,23.344 Z" id="Fill-7"></path>
                    </g>
                </g>
            </g>
        </g>
    </g>
</svg>