<?xml version="1.0" encoding="UTF-8" standalone="no"?>
<svg width="160px" height="32px" viewBox="0 0 160 32" version="1.1" xmlns="http://www.w3.org/2000/svg" xmlns:xlink="http://www.w3.org/1999/xlink" xmlns:sketch="http://www.bohemiancoding.com/sketch/ns">
    <!-- Generator: Sketch 3.3.3 (12072) - http://www.bohemiancoding.com/sketch -->
    <title>ons-logo</title>
    <desc>Created with Sketch.</desc>
    <defs></defs>
    <g id="Page-1" stroke="none" stroke-width="1" fill="none" fill-rule="evenodd" sketch:type="MSPage">
        <g id="Home" sketch:type="MSArtboardGroup" transform="translate(-992.000000, -160.000000)">
            <g id="ons-logo" sketch:type="MSLayerGroup" transform="translate(992.000000, 160.000000)">
                <path d="M0.0303605313,19.2077334 C0.516129032,18.2032086 1.00189753,17.259564 1.51802657,16.3159194 C0.910815939,14.8243521 0.425047438,13.2719046 0.0303605313,11.6890169 L0.0303605313,19.2077334 L0.0303605313,19.2077334 Z M2.94497154,0.243521185 C2.94497154,0.243521185 0.0303605313,0.243521185 0.0303605313,3.86589881 L0.0303605313,5.78362814 C0.303605313,9.10160428 1.00189753,12.32826 2.15559772,15.3418346 C3.79506641,12.754422 5.73814042,10.3800905 8.13662239,8.34060058 C12.8728653,4.29206088 19.2182163,1.49156726 27.8709677,0.243521185 C27.8406072,0.243521185 2.94497154,0.243521185 2.94497154,0.243521185 L2.94497154,0.243521185 Z" id="Shape" fill="#FFFFFF" sketch:type="MSShapeGroup"></path>
                <path d="M31.1195446,2.19169066 C21.2523719,3.13533525 14.4819734,5.96626903 9.65464896,10.1061292 C7.04364326,12.32826 5.00948767,14.9461127 3.33965844,17.8988071 C7.13472486,25.2653229 14.3605313,30.7141094 26.4136622,31.4751131 L27.597723,31.4751131 C27.597723,31.4751131 31.3017078,31.5968737 31.3017078,27.4570136 L31.3017078,2.16125051 L31.1195446,2.19169066 M5.70777989,23.1953928 C4.58444023,21.8864665 3.58254269,20.4253394 2.76280835,18.903332 C1.73055028,20.9123817 0.789373814,23.0736323 0.0303605313,25.3566434 L0.0303605313,31.4751131 L19.7950664,31.5055533 C13.6318786,30.013986 9.0170778,27.0917318 5.70777989,23.1953928" id="Shape" fill-opacity="0.49999997" fill="#FFFFFF" sketch:type="MSShapeGroup"></path>
                <path d="M0.0303605313,0.243521185 L159.787476,0.243521185 L159.787476,31.5359934 L0.0303605313,31.5359934 L0.0303605313,0.243521185 L0.0303605313,0.243521185 Z" id="Shape" sketch:type="MSShapeGroup"></path>
                <path d="M43.2333966,14.185109 C40.1973435,14.185109 38.8614801,11.6890169 38.8614801,8.58412176 C38.8614801,5.5096668 40.1973435,2.98313451 43.2333966,2.98313451 C46.2694497,2.98313451 47.6053131,5.54010695 47.6053131,8.58412176 C47.5749526,11.6890169 46.2390892,14.185109 43.2333966,14.185109 L43.2333966,14.185109 Z M43.2333966,3.89633896 C41.0170778,3.89633896 40.1973435,6.3315508 40.1973435,8.58412176 C40.1973435,10.7758124 40.9259962,13.2414644 43.2333966,13.2414644 C45.540797,13.2414644 46.2390892,10.8062526 46.2390892,8.58412176 C46.2390892,6.3315508 45.4497154,3.89633896 43.2333966,3.89633896 L43.2333966,3.89633896 Z M51.3396584,6.27067051 L51.3396584,14.0024681 L50.1252372,14.0024681 L50.1252372,6.30111065 L48.8804554,6.30111065 L48.8804554,5.54010695 L50.1555977,5.54010695 L50.1555977,4.29206088 C50.1555977,2.77005348 51.0664137,1.61332785 52.8273245,1.61332785 C52.9487666,1.61332785 53.1309298,1.643768 53.1309298,1.643768 L53.1309298,2.43521185 L53.0094877,2.43521185 C52.1593928,2.43521185 51.4003795,3.01357466 51.4003795,4.17030029 L51.4003795,5.54010695 L53.1612903,5.54010695 L53.1612903,6.30111065 L51.3396584,6.27067051 L51.3396584,6.27067051 Z M56.4098672,6.27067051 L56.4098672,14.0024681 L55.1954459,14.0024681 L55.1954459,6.30111065 L53.9203036,6.30111065 L53.9203036,5.54010695 L55.1954459,5.54010695 L55.1954459,4.29206088 C55.1954459,2.77005348 56.1062619,1.61332785 57.8671727,1.61332785 C57.9886148,1.61332785 58.170778,1.643768 58.170778,1.643768 L58.170778,2.43521185 L58.0493359,2.43521185 C57.199241,2.43521185 56.4402277,3.01357466 56.4402277,4.17030029 L56.4402277,5.54010695 L58.2011385,5.54010695 L58.2011385,6.30111065 L56.4098672,6.27067051 L56.4098672,6.27067051 Z M60.1745731,3.9267791 C59.7495256,3.9267791 59.3851992,3.59193747 59.3851992,3.1657754 C59.3851992,2.73961333 59.7191651,2.37433155 60.1745731,2.37433155 C60.629981,2.37433155 60.9639469,2.70917318 60.9639469,3.1657754 C60.9335863,3.59193747 60.629981,3.9267791 60.1745731,3.9267791 L60.1745731,3.9267791 Z M59.5370019,5.54010695 L60.7817837,5.54010695 L60.7817837,14.0024681 L59.5370019,14.0024681 L59.5370019,5.54010695 L59.5370019,5.54010695 Z M66.0645161,14.185109 C64.0910816,14.185109 62.512334,12.4500206 62.512334,9.74084739 C62.512334,6.97079391 64.0607211,5.29658577 66.0948767,5.29658577 C67.1271347,5.29658577 67.7950664,5.60098725 68.1593928,5.87494858 L67.8254269,6.63595228 C67.5521822,6.42287125 67.0360531,6.17935006 66.3377609,6.17935006 C64.6072106,6.17935006 63.7267552,7.67091732 63.7267552,9.67996709 C63.7267552,11.7498972 64.7286528,13.2414644 66.2770398,13.2414644 C66.914611,13.2414644 67.43074,13.0283834 67.7647059,12.7848622 L68.0986717,13.6067462 C67.8254269,13.9111477 67.0967742,14.185109 66.0645161,14.185109 L66.0645161,14.185109 Z M70.1631879,10.2583299 C70.3149905,12.2369395 71.4383302,13.2414644 73.1385199,13.2414644 C74.170778,13.2414644 74.9601518,12.9675031 75.4155598,12.7239819 L75.7495256,13.576306 C75.2030361,13.8807075 74.2314991,14.1546689 73.0170778,14.1546689 C70.6489564,14.1546689 68.9791271,12.7239819 68.9791271,9.67996709 C68.9791271,6.78815302 70.5275142,5.26614562 72.6527514,5.26614562 C74.8083491,5.26614562 76.113852,6.57507199 76.113852,9.40600576 L70.1631879,10.2583299 L70.1631879,10.2583299 Z M72.6223909,6.14890991 C71.256167,6.14890991 70.1024668,7.2143151 70.1328273,9.58864665 L74.9297913,8.91896339 C74.8994307,6.97079391 73.9582543,6.14890991 72.6223909,6.14890991 L72.6223909,6.14890991 Z M83.9468691,6.27067051 L83.9468691,14.0024681 L82.7324478,14.0024681 L82.7324478,6.30111065 L81.4573055,6.30111065 L81.4573055,5.54010695 L82.7324478,5.54010695 L82.7324478,4.29206088 C82.7324478,2.77005348 83.6432638,1.61332785 85.4041746,1.61332785 C85.5256167,1.61332785 85.7077799,1.643768 85.7077799,1.643768 L85.7077799,2.43521185 L85.5863378,2.43521185 C84.7362429,2.43521185 83.9772296,3.01357466 83.9772296,4.17030029 L83.9772296,5.54010695 L85.7381404,5.54010695 L85.7381404,6.30111065 L83.9468691,6.27067051 L83.9468691,6.27067051 Z M90.170778,14.185109 C87.6812144,14.185109 86.5578748,12.2369395 86.5578748,9.74084739 C86.5578748,7.24475524 87.6812144,5.29658577 90.170778,5.29658577 C92.6603416,5.29658577 93.7836812,7.24475524 93.7836812,9.74084739 C93.7836812,12.2978198 92.6603416,14.185109 90.170778,14.185109 L90.170778,14.185109 Z M90.170778,6.17935006 C88.3187856,6.17935006 87.8026565,8.06663924 87.8026565,9.77128754 C87.8026565,11.506376 88.3795066,13.3023447 90.170778,13.3023447 C92.0227704,13.3023447 92.56926,11.5368161 92.56926,9.77128754 C92.56926,8.00575895 92.0227704,6.17935006 90.170778,6.17935006 L90.170778,6.17935006 Z M99.0967742,6.3315508 C98.3074004,6.11846977 97.1840607,6.17935006 96.6679317,6.48375154 L96.6679317,14.0024681 L95.4231499,14.0024681 L95.4231499,5.90538873 C96.3036053,5.54010695 97.1840607,5.32702592 98.7628083,5.32702592 L99.4003795,5.32702592 C99.43074,5.32702592 99.0967742,6.3315508 99.0967742,6.3315508 L99.0967742,6.3315508 L99.0967742,6.3315508 Z M45.9962049,31.1098313 L41.2296015,23.7128754 C40.8956357,23.1345125 40.6223909,22.61703 40.6223909,22.61703 L40.5920304,22.61703 C40.5920304,22.61703 40.6527514,23.225833 40.6527514,23.8955162 L40.6527514,31.1098313 L39.1043643,31.1098313 L39.1043643,20.3340189 L40.8652751,20.3340189 L45.3889943,27.2743727 C45.7836812,27.8831756 46.0265655,28.370218 46.0265655,28.370218 L46.056926,28.370218 C46.056926,28.370218 45.9962049,27.7614151 45.9962049,27.0917318 L45.9962049,20.3035788 L47.5749526,20.3035788 L47.5749526,31.0793912 L45.9962049,31.1098313 L45.9962049,31.1098313 Z M52.7058824,31.3229124 C50.2466793,31.3229124 49.0626186,30.3183875 49.0626186,28.7050596 C49.0626186,26.4220485 51.43074,25.8132456 54.2542694,25.5697244 L54.2542694,25.082682 C54.2542694,23.9259564 53.4648956,23.5911148 52.3111954,23.5911148 C51.4914611,23.5911148 50.5502846,23.834636 50.0341556,24.0781571 L49.6091082,23.0431921 C50.1859583,22.7996709 51.3092979,22.4343891 52.6451613,22.4343891 C54.5275142,22.4343891 55.9544592,23.225833 55.9544592,25.3566434 L55.9544592,30.7141094 C55.2258065,31.0793912 54.1024668,31.3229124 52.7058824,31.3229124 L52.7058824,31.3229124 Z M54.2542694,26.4220485 C52.1593928,26.6351296 50.7628083,27.0308515 50.7628083,28.6441794 C50.7628083,29.7704648 51.5825427,30.2879473 52.8273245,30.2879473 C53.4041746,30.2879473 53.9203036,30.1661868 54.2542694,29.9835459 L54.2542694,26.4220485 L54.2542694,26.4220485 Z M60.8425047,31.2924722 C59.0815939,31.2924722 58.4136622,30.1357466 58.4136622,29.0094611 L58.4136622,23.7737557 L57.2296015,23.7737557 L57.2296015,22.6779103 L58.4136622,22.6779103 L58.4136622,20.7906211 L60.2049336,20.2731386 L60.2049336,22.6779103 L61.8444023,22.6779103 L61.8444023,23.7737557 L60.2049336,23.7737557 L60.2049336,28.9485808 C60.2049336,29.6182641 60.56926,30.1357466 61.3586338,30.1357466 C61.5104364,30.1357466 61.6925996,30.1053065 61.8444023,30.0444262 L61.8444023,31.1402715 C61.6622391,31.2011518 61.3282732,31.2924722 60.8425047,31.2924722 L60.8425047,31.2924722 Z M64.1518027,21.1863431 C63.5749526,21.1863431 63.1195446,20.760181 63.1195446,20.2426985 C63.1195446,19.725216 63.6053131,19.2990539 64.1518027,19.2990539 C64.6982922,19.2990539 65.1840607,19.725216 65.1840607,20.2426985 C65.2144213,20.7906211 64.7286528,21.1863431 64.1518027,21.1863431 L64.1518027,21.1863431 Z M63.2409867,22.6779103 L65.0626186,22.6779103 L65.0626186,31.1402715 L63.2409867,31.1402715 L63.2409867,22.6779103 L63.2409867,22.6779103 Z M70.4667932,31.3229124 C67.886148,31.3229124 66.6110057,29.4051831 66.6110057,26.8786508 C66.6110057,24.3521185 67.886148,22.403949 70.4667932,22.403949 C73.0474383,22.403949 74.2922201,24.3521185 74.2922201,26.8786508 C74.3225806,29.4356232 73.0474383,31.3229124 70.4667932,31.3229124 L70.4667932,31.3229124 Z M70.4667932,23.6215549 C68.9184061,23.6215549 68.4629981,25.2653229 68.4629981,26.9090909 C68.4629981,28.5528589 68.9487666,30.1053065 70.4667932,30.1053065 C72.0151803,30.1053065 72.4705882,28.5528589 72.4705882,26.9090909 C72.4705882,25.2348828 72.0151803,23.6215549 70.4667932,23.6215549 L70.4667932,23.6215549 Z M81.0018975,31.1098313 L81.0018975,25.0522419 C81.0018975,23.9868367 80.0910816,23.5606746 79.028463,23.5606746 C78.4516129,23.5606746 77.9354839,23.6824352 77.5711575,23.8041958 L77.5711575,31.1098313 L75.7798861,31.1098313 L75.7798861,23.0431921 C76.56926,22.7083505 77.8140417,22.4343891 79.1195446,22.4343891 C81.3055028,22.4343891 82.7931689,23.1953928 82.7931689,25.0522419 L82.7931689,31.1402715 L81.0018975,31.1098313 L81.0018975,31.1098313 Z M87.9240987,31.3229124 C85.4648956,31.3229124 84.2808349,30.3183875 84.2808349,28.7050596 C84.2808349,26.4220485 86.6793169,25.8132456 89.4724858,25.5697244 L89.4724858,25.082682 C89.4724858,23.9259564 88.683112,23.5911148 87.5294118,23.5911148 C86.7096774,23.5911148 85.7685009,23.834636 85.2523719,24.0781571 L84.8273245,23.0431921 C85.4041746,22.7996709 86.5275142,22.4343891 87.8633776,22.4343891 C89.7457306,22.4343891 91.1726755,23.225833 91.1726755,25.3566434 L91.1726755,30.7141094 C90.4440228,31.0793912 89.2903226,31.3229124 87.9240987,31.3229124 L87.9240987,31.3229124 Z M89.4724858,26.4220485 C87.3776091,26.6351296 85.9810247,27.0308515 85.9810247,28.6441794 C85.9810247,29.7704648 86.800759,30.2879473 88.0455408,30.2879473 C88.6223909,30.2879473 89.1385199,30.1661868 89.4724858,29.9835459 L89.4724858,26.4220485 L89.4724858,26.4220485 Z M92.9943074,31.1098313 L92.9943074,18.7815714 L94.7855787,18.7815714 L94.7855787,31.1098313 L92.9943074,31.1098313 L92.9943074,31.1098313 Z M103.377609,31.3229124 C102.102467,31.3229124 101.039848,31.0185109 100.462998,30.7141094 L100.979127,29.4051831 C101.404175,29.6487042 102.223909,29.9226656 103.043643,29.9226656 C104.318786,29.9226656 105.199241,29.192102 105.199241,28.1266968 C105.199241,25.7523653 100.705882,26.6655697 100.705882,23.3171534 C100.705882,21.582065 102.102467,20.1209379 104.288425,20.1209379 C105.442125,20.1209379 106.383302,20.4557795 106.899431,20.7297408 L106.444023,21.9169066 C106.049336,21.6733854 105.320683,21.3994241 104.56167,21.3994241 C103.40797,21.3994241 102.618596,22.0995475 102.618596,23.1345125 C102.618596,25.4479638 107.203036,24.4434389 107.203036,28.0353764 C107.142315,29.8922254 105.563567,31.3229124 103.377609,31.3229124 L103.377609,31.3229124 Z M111.696395,31.2924722 C109.935484,31.2924722 109.267552,30.1357466 109.267552,29.0094611 L109.267552,23.7737557 L108.083491,23.7737557 L108.083491,22.6779103 L109.267552,22.6779103 L109.267552,20.7906211 L111.058824,20.2731386 L111.058824,22.6779103 L112.698292,22.6779103 L112.698292,23.7737557 L111.058824,23.7737557 L111.058824,28.9485808 C111.058824,29.6182641 111.45351,30.1357466 112.212524,30.1357466 C112.364326,30.1357466 112.54649,30.1053065 112.698292,30.0444262 L112.698292,31.1402715 C112.54649,31.2011518 112.151803,31.2924722 111.696395,31.2924722 L111.696395,31.2924722 Z M117.313093,31.3229124 C114.85389,31.3229124 113.669829,30.3183875 113.669829,28.7050596 C113.669829,26.4220485 116.068311,25.8132456 118.86148,25.5697244 L118.86148,25.082682 C118.86148,23.9259564 118.072106,23.5911148 116.918406,23.5911148 C116.098672,23.5911148 115.157495,23.834636 114.641366,24.0781571 L114.216319,23.0431921 C114.793169,22.7996709 115.916509,22.4343891 117.252372,22.4343891 C119.134725,22.4343891 120.56167,23.225833 120.56167,25.3566434 L120.56167,30.7141094 C119.863378,31.0793912 118.709677,31.3229124 117.313093,31.3229124 L117.313093,31.3229124 Z M118.86148,26.4220485 C116.766603,26.6351296 115.370019,27.0308515 115.370019,28.6441794 C115.370019,29.7704648 116.189753,30.2879473 117.434535,30.2879473 C118.011385,30.2879473 118.527514,30.1661868 118.86148,29.9835459 L118.86148,26.4220485 L118.86148,26.4220485 Z M125.480076,31.2924722 C123.719165,31.2924722 123.051233,30.1357466 123.051233,29.0094611 L123.051233,23.7737557 L121.867173,23.7737557 L121.867173,22.6779103 L123.051233,22.6779103 L123.051233,20.7906211 L124.842505,20.2731386 L124.842505,22.6779103 L126.481973,22.6779103 L126.481973,23.7737557 L124.842505,23.7737557 L124.842505,28.9485808 C124.842505,29.6182641 125.237192,30.1357466 125.996205,30.1357466 C126.148008,30.1357466 126.330171,30.1053065 126.481973,30.0444262 L126.481973,31.1402715 C126.26945,31.2011518 125.935484,31.2924722 125.480076,31.2924722 L125.480076,31.2924722 Z M128.789374,21.1863431 C128.212524,21.1863431 127.757116,20.760181 127.757116,20.2426985 C127.757116,19.725216 128.242884,19.2990539 128.789374,19.2990539 C129.335863,19.2990539 129.821632,19.725216 129.821632,20.2426985 C129.821632,20.7906211 129.366224,21.1863431 128.789374,21.1863431 L128.789374,21.1863431 Z M127.878558,22.6779103 L129.70019,22.6779103 L129.70019,31.1402715 L127.878558,31.1402715 L127.878558,22.6779103 L127.878558,22.6779103 Z M133.616698,31.3229124 C132.58444,31.3229124 131.582543,31.0185109 131.066414,30.7141094 L131.552182,29.5573838 C131.886148,29.800905 132.614801,30.0748663 133.404175,30.0748663 C134.314991,30.0748663 135.074004,29.4965035 135.074004,28.7659399 C135.074004,26.7568902 131.370019,27.7005348 131.370019,24.9304813 C131.370019,23.6519951 132.493359,22.4648293 134.314991,22.4648293 C135.347249,22.4648293 136.106262,22.7387906 136.683112,23.0736323 L136.197343,24.1085973 C135.924099,23.9259564 135.377609,23.6215549 134.679317,23.6215549 C133.73814,23.6215549 133.191651,24.1999177 133.191651,24.8391608 C133.191651,26.72645 136.956357,25.8741259 136.956357,28.7050596 C136.895636,30.0444262 135.650854,31.3229124 133.616698,31.3229124 L133.616698,31.3229124 Z M141.510436,31.2924722 C139.749526,31.2924722 139.081594,30.1357466 139.081594,29.0094611 L139.081594,23.7737557 L137.897533,23.7737557 L137.897533,22.6779103 L139.081594,22.6779103 L139.081594,20.7906211 L140.872865,20.2731386 L140.872865,22.6779103 L142.512334,22.6779103 L142.512334,23.7737557 L140.872865,23.7737557 L140.872865,28.9485808 C140.872865,29.6182641 141.237192,30.1357466 142.026565,30.1357466 C142.178368,30.1357466 142.360531,30.1053065 142.512334,30.0444262 L142.512334,31.1402715 C142.330171,31.2011518 141.965844,31.2924722 141.510436,31.2924722 L141.510436,31.2924722 Z M144.789374,21.1863431 C144.212524,21.1863431 143.757116,20.760181 143.757116,20.2426985 C143.757116,19.725216 144.242884,19.2990539 144.789374,19.2990539 C145.366224,19.2990539 145.821632,19.725216 145.821632,20.2426985 C145.882353,20.7906211 145.396584,21.1863431 144.789374,21.1863431 L144.789374,21.1863431 Z M143.908918,22.6779103 L145.73055,22.6779103 L145.73055,31.1402715 L143.908918,31.1402715 L143.908918,22.6779103 L143.908918,22.6779103 Z M150.952562,31.3229124 C148.888046,31.3229124 147.309298,29.6182641 147.309298,26.8482106 C147.309298,24.047717 148.948767,22.403949 150.982922,22.403949 C152.01518,22.403949 152.743833,22.7083505 153.13852,23.012752 L152.743833,24.047717 C152.470588,23.8650761 152.01518,23.6519951 151.43833,23.6519951 C149.950664,23.6519951 149.222011,24.9304813 149.222011,26.8177705 C149.222011,28.7659399 150.102467,30.013986 151.40797,30.013986 C151.98482,30.013986 152.440228,29.800905 152.713472,29.5878239 L153.16888,30.6836693 C152.743833,31.048951 152.01518,31.3229124 150.952562,31.3229124 L150.952562,31.3229124 Z M156.478178,31.3229124 C155.44592,31.3229124 154.444023,31.0185109 153.927894,30.7141094 L154.413662,29.5573838 C154.747628,29.800905 155.476281,30.0748663 156.265655,30.0748663 C157.176471,30.0748663 157.935484,29.4965035 157.935484,28.7659399 C157.935484,26.7568902 154.231499,27.7005348 154.231499,24.9304813 C154.231499,23.6519951 155.354839,22.4648293 157.176471,22.4648293 C158.208729,22.4648293 158.967742,22.7387906 159.574953,23.0736323 L159.089184,24.1085973 C158.815939,23.9259564 158.26945,23.6215549 157.571157,23.6215549 C156.629981,23.6215549 156.083491,24.1999177 156.083491,24.8391608 C156.083491,26.72645 159.848197,25.8741259 159.848197,28.7050596 C159.757116,30.0444262 158.481973,31.3229124 156.478178,31.3229124 L156.478178,31.3229124 Z" id="Shape" fill="#FFFFFF" sketch:type="MSShapeGroup"></path>
            </g>
        </g>
    </g>
</svg>