<?xml version="1.0" encoding="utf-8"?>
<!-- Generator: Adobe Illustrator 19.1.0, SVG Export Plug-In . SVG Version: 6.00 Build 0)  -->
<svg version="1.1" id="Layer_1" xmlns="http://www.w3.org/2000/svg" xmlns:xlink="http://www.w3.org/1999/xlink" x="0px" y="0px"
	 viewBox="0 0 509.1 116.2" style="enable-background:new 0 0 509.1 116.2;" xml:space="preserve">
<path d="M13.9,68.2c1.5-3,2.9-5.9,4.6-8.7c-1.9-4.6-3.3-9.2-4.6-14V68.2 M22.8,10.9c0,0-8.9,0-8.9,11c0,12.7,2.4,24.2,6.4,34.7
	c17.9-28.2,44.8-40.9,77.9-45.6C98.3,10.9,22.8,10.9,22.8,10.9z"/>
<path d="M108.2,16.8c-36.6,3.5-66,15.7-84.3,47.5c14.6,28.4,43.9,41.1,73.5,41.1c0,0,11.2,0.4,11.2-12.1V16.7L108.2,16.8 M31.2,80.3
	c-3.4-4-6.4-8.4-8.9-13c-3.2,6.1-5.9,12.6-8.3,19.5v18.5l59.9,0.1C55.2,100.9,41.2,92,31.2,80.3"/>
<path d="M144.9,53.1c-9.2,0-13.3-7.6-13.3-16.9c0-9.3,4.1-16.9,13.3-16.9c9.2,0,13.3,7.7,13.3,16.9C158,45.5,154,53.1,144.9,53.1
	 M144.9,21.9c-6.8,0-9.2,7.4-9.2,14.2c0,6.7,2.2,14.1,9.2,14.1c7,0,9.1-7.4,9.1-14.1C154,29.3,151.6,21.9,144.9,21.9 M169.4,29.1
	v23.3h-3.7V29.2h-3.8V27h3.8v-3.7c0-6,4.7-8.7,9-8v2.4c-6,0-5.3,5.1-5.3,9.4h5.4v2.3C174.8,29.2,169.4,29.1,169.4,29.1z M184.8,29.1
	v23.3h-3.7V29.2h-3.8V27h3.8c0-3.3-1-11.8,8.1-11.8c0.4,0,0.9,0.1,0.9,0.1v2.4c-3.6,0-5.3,2.2-5.3,5.2V27h5.4v2.3
	C190.2,29.2,184.8,29.1,184.8,29.1z M196.2,22c-3.2,0-3-4.6,0-4.6C199.2,17.4,199.4,22,196.2,22 M194.3,26.9h3.7v25.6h-3.7V26.9z
	 M214.1,53.1c-6,0-10.7-5.2-10.7-13.4c0-14.1,12.4-15.4,17.2-11.6l-1,2.3c-3.2-2.6-12.4-2.6-12.4,9.2c0,10.1,7.3,12.8,12.3,9.4
	l1,2.4C219.4,52.2,217.2,53.1,214.1,53.1 M226.5,41.2c0.9,11.2,11.6,9.8,15.9,7.5l1.1,2.6c-1.6,0.9-4.6,1.7-8.3,1.7
	c-7.2,0-12.3-4.3-12.3-13.5c0-8.8,4.7-13.3,11.1-13.3c6.5,0,10.5,4,10.5,12.5L226.5,41.2L226.5,41.2z M233.9,28.7
	c-4.1,0-7.6,3.3-7.6,10.4l14.6-2C240.8,31.2,238,28.7,233.9,28.7 M268.2,29.1v23.3h-3.7V29.2h-3.8V27h3.8v-3.7c0-6,4.7-8.7,9-8v2.4
	c-6,0-5.3,5.1-5.3,9.4h5.4v2.3L268.2,29.1z M287.1,53.1c-7.6,0-11-5.9-11-13.4s3.4-13.4,11-13.4s11,5.9,11,13.4
	C298.1,47.3,294.7,53.1,287.1,53.1 M287.1,28.8c-5.6,0-7.2,5.7-7.2,10.9c0,5.3,1.7,10.7,7.2,10.7c5.6,0,7.2-5.4,7.2-10.7
	S292.7,28.8,287.1,28.8 M314.2,29.3c-2.4-0.7-5.8-0.5-7.4,0.5v22.7H303V28c4.3-1.8,7.7-1.8,12.1-1.8
	C315.2,26.3,314.2,29.3,314.2,29.3L314.2,29.3z M153.2,104.2c-15.2-23.5-15.1-23.1-16.3-25.7h-0.1c0.2,2.5,0.2,2.7,0.2,25.7h-4.7
	V71.6h5.4c14.5,22.1,14.7,22.3,15.7,24.3h0.1c-0.2-2.5-0.2-2.7-0.2-24.4h4.8v32.6L153.2,104.2L153.2,104.2z M173.6,104.9
	c-7.5,0-11.1-3-11.1-7.9c0-6.9,7.2-8.7,15.8-9.5V86c0-6.7-9.9-4.5-12.8-3.1l-1.3-3.1c1.8-0.7,5.1-1.9,9.2-1.9c5.7,0,10,2.4,10,8.9
	V103C181.2,104.1,177.8,104.9,173.6,104.9 M178.3,90.1c-6.3,0.7-10.6,1.9-10.6,6.8c0,5.9,7.7,5.5,10.6,4.1V90.1z M198.2,104.8
	c-5.4,0-7.4-3.5-7.4-6.9V82h-3.6v-3.3h3.6V73l5.4-1.5v7.2h5V82h-5v15.6c0,2,1.1,3.6,3.5,3.6c0.5,0,1-0.1,1.5-0.2v3.3
	C200.7,104.5,199.7,104.8,198.2,104.8 M208.3,74.2c-1.7,0-3.2-1.3-3.2-2.8c0-1.5,1.5-2.8,3.2-2.8C212.4,68.5,212.5,74.2,208.3,74.2
	 M205.5,78.7h5.5v25.5h-5.5V78.7z M227.4,104.9c-7.8,0-11.7-5.8-11.7-13.4s3.9-13.5,11.7-13.5c7.8,0,11.6,5.9,11.6,13.5
	C239.1,99.1,235.2,104.9,227.4,104.9 M227.4,81.5c-4.7,0-6.1,5-6.1,9.9s1.5,9.7,6.1,9.7c4.7,0,6.1-4.7,6.1-9.7
	C233.5,86.4,232.1,81.5,227.4,81.5 M259.4,104.2V85.9c0-5.2-7.1-5-10.3-3.7v22h-5.4V79.8c2.4-1.1,6.2-1.9,10.2-1.9
	c6.7,0,11.1,2.3,11.1,7.9v18.4L259.4,104.2L259.4,104.2z M280.3,104.9c-7.5,0-11.1-3-11.1-7.9c0-6.9,7.2-8.7,15.8-9.5
	c0-2.5,0.4-6-5.9-6c-2.5,0-5.4,0.7-6.9,1.5l-1.3-3.1c7.2-2.9,19.2-3.7,19.2,7V103C287.9,104.1,284.5,104.9,280.3,104.9 M285,90.1
	c-6.3,0.7-10.6,1.9-10.6,6.8c0,5.9,7.7,5.5,10.6,4.1V90.1z M295.7,104.2V67h5.4v37.2H295.7z M327.1,104.9c-3.9,0-7.1-0.9-8.9-1.9
	l1.5-4c5,2.8,12.8,1.9,12.8-3.9c0-7.2-13.6-4.4-13.6-14.6c0-9.1,11.3-12.1,18.7-7.8l-1.4,3.6c-4.7-2.8-11.5-1.9-11.5,3.7
	c0,7,13.9,4,13.9,14.8C338.6,100.6,333.8,104.9,327.1,104.9 M352.4,104.8c-5.4,0-7.4-3.5-7.4-6.9V82h-3.6v-3.3h3.6V73l5.4-1.5v7.2h5
	V82h-5v15.6c0,3,2.5,4.2,5,3.3v3.3C354.9,104.5,353.8,104.8,352.4,104.8 M369.4,104.9c-7.5,0-11.1-3-11.1-7.9
	c0-6.9,7.2-8.7,15.8-9.5V86c0-6.7-9.9-4.5-12.8-3.1l-1.3-3.1c7.2-2.9,19.2-3.7,19.2,7V103C377.1,104.1,373.6,104.9,369.4,104.9
	 M374.1,90.1c-6.3,0.7-10.6,1.9-10.6,6.8c0,5.9,7.7,5.5,10.6,4.1V90.1z M394.1,104.8c-5.4,0-7.4-3.5-7.4-6.9V82h-3.6v-3.3h3.6V73
	l5.4-1.5v7.2h5V82h-5v15.6c0,2,1.2,3.6,3.5,3.6c0.5,0,1-0.1,1.5-0.2v3.3C396.6,104.5,395.5,104.8,394.1,104.8 M404.1,74.2
	c-1.7,0-3.2-1.3-3.2-2.8s1.5-2.8,3.2-2.8C408.3,68.5,408.4,74.2,404.1,74.2 M401.4,78.7h5.5v25.5h-5.5V78.7z M418.8,104.9
	c-3.2,0-6.2-0.9-7.7-1.9l1.5-3.5c1.1,0.7,3.3,1.5,5.6,1.5c2.8,0,5-1.8,5-4c0-6.1-11.2-3.3-11.2-11.5c0-7.1,9.8-9.5,16.1-5.6
	l-1.5,3.2c-0.8-0.6-2.5-1.5-4.6-1.5c-2.8,0-4.6,1.7-4.6,3.7c0,5.7,11.4,3.2,11.4,11.7C428.8,101,424.9,104.9,418.8,104.9
	 M442.7,104.8c-5.4,0-7.4-3.5-7.4-6.9V82h-3.6v-3.3h3.6V73l5.4-1.5v7.2h5V82h-5v15.6c0,3.1,2.6,4.1,5,3.3v3.3
	C445.2,104.5,444.1,104.8,442.7,104.8 M452.7,74.2c-1.7,0-3.2-1.3-3.2-2.8s1.5-2.8,3.2-2.8C456.7,68.5,457.1,74.2,452.7,74.2
	 M450,78.7h5.5v25.5H450V78.7z M471.3,104.9c-14.8,0-14.9-26.9,0.1-26.9c3.2,0,5.4,0.9,6.5,1.9l-1.2,3.1c-3.3-2.3-10.7-2.3-10.7,8.4
	c0,9.3,6.4,11.5,10.7,8.4l1.4,3.3C476.8,104,474.6,104.9,471.3,104.9 M488.1,104.9c-3.2,0-6.2-0.9-7.7-1.9l1.5-3.5
	c1.1,0.7,3.3,1.5,5.6,1.5c2.8,0,5-1.8,5-4c0-6.1-11.2-3.3-11.2-11.5c0-6.9,9.3-9.6,16.2-5.6l-1.5,3.2c-3.8-2.7-9.2-1.5-9.2,2.2
	c0,5.7,11.4,3.2,11.4,11.7C498.1,101,494.2,104.9,488.1,104.9"/>
</svg>
